<svg id="Logo_Black" data-name="Logo Black" xmlns="http://www.w3.org/2000/svg" viewBox="0 0 2000 1370.74"><title>Logo Black</title><path d="M259.34,1659v-51.1c0-2.93.91-4.48,2.75-4.67s5.12.64,9.89,2.47q11,3.3,26.1,6.32t29.67,4.67a217.66,217.66,0,0,0,23.35,1.65q25.81,0,39.29-14.29t13.46-31.32q0-18.12-14.56-30.49t-36.54-18.41q-13.19-3.3-30.5-9.34a138.73,138.73,0,0,1-33.79-17.58Q272,1485.38,261,1465.59T250,1415q0-38.46,17.86-61.81t46.43-34.07a170.72,170.72,0,0,1,60.44-10.71,162.2,162.2,0,0,1,26.37,2.47,303.49,303.49,0,0,1,29.95,6.59,179.28,179.28,0,0,1,26.1,9.07c3.29.74,5.3,1.83,6,3.29a13.8,13.8,0,0,1,1.1,6.05v47.25q0,17-20.33,5.5-11-7.14-27.2-12.37a115.39,115.39,0,0,0-35.44-5.22q-21.43,0-34.34,11.27t-12.91,25q0,16.49,9.89,26.37t25.27,15.39a298.45,298.45,0,0,0,31.6,9.34,216.31,216.31,0,0,1,28.84,8.79q20.32,7.14,33.79,19.23t20.61,31.32q7.13,19.23,7.14,47.8,0,41.76-18.13,68.13t-49.73,39q-31.61,12.63-71.15,12.63a261.88,261.88,0,0,1-38.74-3.29,224.71,224.71,0,0,1-39.28-9.34q-8.81-2.74-11.82-5.5C260.34,1665.41,259.34,1662.66,259.34,1659Z" transform="translate(-250 -314.63)"/><path d="M660.44,1684.82a218.1,218.1,0,0,1-53.57-6.32q-25-6.3-40.66-24.72t-15.66-53.57q0-29.12,11.26-47.53t28.58-28.3a116.9,116.9,0,0,1,35.43-13.46,167.58,167.58,0,0,1,31.87-3.57q9.9,0,19,.55t17.86,1.65q4.38,1.65,4.39-5.5,0-16.48-11-23.07t-29.12-6.6a96.72,96.72,0,0,0-39.56,8.52q-19.25,8.52-32.42,14.56-7.14,3.3-9.34,2.2c-1.47-.73-2.56-3.48-3.29-8.25l-5.5-34.06c-.74-5.5-.74-9.15,0-11s3.11-4,7.14-6.59q14.28-8.79,37.09-14.84a184.73,184.73,0,0,1,47.53-6q37.92,0,60.72,8.51t34.34,23.08a78.17,78.17,0,0,1,15.38,33,186.51,186.51,0,0,1,3.85,38.18q0,22-.28,44t-1.1,44q-.83,22-3,44-1.65,7.15-3.57,10.17c-1.29,2-4.12,4.12-8.52,6.32q-7.14,3.84-20.6,6.59t-28.57,4.67q-15.12,1.92-28.3,2.75T660.44,1684.82Zm4.4-47.8a70.32,70.32,0,0,0,8.79-.55,30.26,30.26,0,0,0,8.24-2.2,20,20,0,0,0,6.32-4.12,10.82,10.82,0,0,0,3-6.32q1.1-12.63,2.2-26.37a172.56,172.56,0,0,0,0-27.47,10.44,10.44,0,0,0-4.4-8.79q-4.93-4.4-13.18-4.68c-5.5-.17-9.17-.27-11-.27a40.43,40.43,0,0,0-10.44,1.65,34.5,34.5,0,0,0-11.82,6q-5.76,4.41-9.34,13.19t-3.57,23.08a44.06,44.06,0,0,0,3.85,18.4,30.5,30.5,0,0,0,11.54,13.47Q652.74,1637,664.84,1637Z" transform="translate(-250 -314.63)"/><path d="M946.7,1681q-38.46,0-57.42-15.94t-25-44.5a285.22,285.22,0,0,1-4.94-47q-.55-23.91-.55-47.53,0-15.37.27-25.82t.83-24.18q0-5.49-4.95-5.49H834.06q-4.93,0-6.59-1.1t-1.65-7.7V1431q0-7.68,1.65-8.51t8.24-.83h21.43q4.4,0,5-2.47a76.12,76.12,0,0,0,1.09-8l2.2-39q0-7.68,7.69-7.69h62.64a10.64,10.64,0,0,1,6.32,2.2,5.37,5.37,0,0,1,2.47,5.49l-2.74,39.56q-.56,7.15.27,8.52c.55.92,1.92,1.37,4.12,1.37h40.11c4.4,0,7,.47,7.7,1.38s1.09,3.94,1.09,9.06v29.12c0,4-.64,6.6-1.92,7.7s-3.94,1.65-8,1.65H945.6c-2.56,0-4.31.64-5.22,1.92s-1.37,3.39-1.37,6.32q-.56,12.65-.82,26.1t-.83,27.74q0,18.14,1.1,36.54a206.94,206.94,0,0,0,4.95,34.89q2.73,8.81,8,12.37a20.45,20.45,0,0,0,11.82,3.57,37,37,0,0,0,11.81-1.93l9.06-3q7.14-4.39,9.07-2.74c1.28,1.09,2.65,3.66,4.12,7.69l11,37.91c1.46,2.94.91,5.49-1.65,7.69s-7.51,4.77-14.83,7.69q-6.6,2.21-14,4.13a105.14,105.14,0,0,1-15.11,2.74A149.59,149.59,0,0,1,946.7,1681Z" transform="translate(-250 -314.63)"/><path d="M1069.78,1611.2q1.65-7.14,5.77-6a33.85,33.85,0,0,1,8,3.3,130,130,0,0,0,21.71,7.69,227.61,227.61,0,0,0,25.27,5.22,158.65,158.65,0,0,0,23.35,1.92,81,81,0,0,0,17.31-1.64,28.35,28.35,0,0,0,12.09-5.5,12.22,12.22,0,0,0,4.67-9.89q.54-9.33-9.62-15.11t-36-11.81a261.54,261.54,0,0,1-35.45-12.09,76.81,76.81,0,0,1-30.76-23.08q-12.37-15.37-12.37-41.21,0-28.56,14.56-47a90.2,90.2,0,0,1,37.64-27.74,130.51,130.51,0,0,1,49.45-9.34q20.32,0,45.33,6.31t41.49,15.66q6,3.3,6.32,5.77t-1.38,6.87l-14.83,40.11q-1.65,7.71-11.54,3.85a251.49,251.49,0,0,0-30-12.91,102.65,102.65,0,0,0-35.44-6.32,34.32,34.32,0,0,0-16.48,4.12c-5.14,2.75-7.69,6.69-7.69,11.81q0,9.9,9.61,14.29t28.3,9.34q14.28,3.86,28.57,8a100.66,100.66,0,0,1,26.65,12.09,58.3,58.3,0,0,1,19.78,21.71q7.41,13.74,7.42,36.26,0,25.28-9.62,42a76.71,76.71,0,0,1-25.55,26.92,111.26,111.26,0,0,1-34.61,14.56,160.45,160.45,0,0,1-36.82,4.39,212.86,212.86,0,0,1-26.92-2.19,200.43,200.43,0,0,1-33.24-7.42,107.78,107.78,0,0,1-28.85-13.46,18.68,18.68,0,0,1-3.84-3.85,6.87,6.87,0,0,1-1.1-5.49Z" transform="translate(-250 -314.63)"/><path d="M1437.36,1683.18q-46.15,0-71.15-17a87.55,87.55,0,0,1-34.62-45.33Q1322,1592.52,1322,1559q0-19.23.83-40.11t2.75-42q1.9-21.13,4.12-39.83,1.1-11.54,3.57-13.46t11.26-1.93h51.65c5.5,0,9.52.1,12.09.28s3.29,3.94,2.2,11.26q0,2.2-.83,15.94t-1.92,33.79q-1.11,20.05-1.65,40.93t-.55,37.37q0,32.41,7.69,46.15t26.38,13.74q2.19,0,5.77-.28t6.87-.82a10.78,10.78,0,0,0,5.49-2.48,6.57,6.57,0,0,0,2.2-5.21V1432.62a50.18,50.18,0,0,1,.55-7.14,4,4,0,0,1,4.39-3.85h65.94a18.18,18.18,0,0,1,5.49,1.1q3.3,1.11,3.3,7.15V1653.5q0,6.6-4.12,9.34t-16.76,7.15a208.44,208.44,0,0,1-20.88,5.22q-14.29,3-30.49,5.49A199.6,199.6,0,0,1,1437.36,1683.18Z" transform="translate(-250 -314.63)"/><path d="M1620.32,1681q-9.35,0-9.34-8.24V1449.11q0-5.49,3-8.52c2-2,5.22-3.75,9.61-5.22a247.76,247.76,0,0,1,26.93-7.42q15.93-3.57,31.86-6a180.18,180.18,0,0,1,26.93-2.47q28,0,46.15,5.22a125.23,125.23,0,0,1,34.07,15.65q11.54-6.58,22-11.26a115.28,115.28,0,0,1,21.15-7.14,106.38,106.38,0,0,1,23.9-2.47q44,0,67.58,16.75a87.35,87.35,0,0,1,33,44.79q9.34,28,9.34,62.63,0,28-1.1,48.9t-3.29,39.84q-2.21,19-5.5,43.13c-.37,2.57-.92,4.12-1.65,4.67a6.61,6.61,0,0,1-3.84.83H1883q-3.84,0-4.67-2.2c-.55-1.46-.64-4.58-.27-9.34q1.65-18.14,2.75-39.29t1.65-44q.54-22.8.54-44.78,0-6-.82-15.94a88.77,88.77,0,0,0-4.12-20,42,42,0,0,0-10.17-17q-6.87-6.86-18.95-6.87-14.3,0-17.86,3c-2.39,2-3.57,5.58-3.57,10.71v177.48q0,8.23-7.69,8.24h-68.14q-4.94,0-4.94-5.5V1542a131.1,131.1,0,0,0-3.3-31q-3.3-13.45-11.26-21.43t-22.8-8a40.82,40.82,0,0,0-6.6.55,29.61,29.61,0,0,0-6,1.65,8.16,8.16,0,0,0-5.5,8.24v179.13q0,9.89-8.24,9.89Z" transform="translate(-250 -314.63)"/><path d="M2135.71,1684.82a218.1,218.1,0,0,1-53.57-6.32q-25-6.3-40.66-24.72t-15.66-53.57q0-29.12,11.27-47.53a79.7,79.7,0,0,1,28.57-28.3,117,117,0,0,1,35.44-13.46,167.5,167.5,0,0,1,31.87-3.57q9.89,0,19,.55t17.86,1.65q4.39,1.65,4.39-5.5,0-16.48-11-23.07t-29.13-6.6a96.72,96.72,0,0,0-39.56,8.52q-19.23,8.52-32.41,14.56-7.15,3.3-9.34,2.2t-3.3-8.25l-5.5-34.06c-.74-5.5-.74-9.15,0-11s3.11-4,7.15-6.59q14.28-8.79,37.08-14.84a184.73,184.73,0,0,1,47.53-6q37.92,0,60.72,8.51t34.34,23.08a78.05,78.05,0,0,1,15.38,33,186.51,186.51,0,0,1,3.85,38.18q0,22-.27,44t-1.1,44q-.83,22-3,44c-1.09,4.77-2.29,8.16-3.57,10.17s-4.12,4.12-8.51,6.32q-7.16,3.84-20.61,6.59t-28.57,4.67q-15.12,1.92-28.3,2.75T2135.71,1684.82Zm4.4-47.8a70.2,70.2,0,0,0,8.79-.55,30.16,30.16,0,0,0,8.24-2.2,20,20,0,0,0,6.32-4.12,10.82,10.82,0,0,0,3-6.32q1.09-12.63,2.2-26.37a172.56,172.56,0,0,0,0-27.47,10.44,10.44,0,0,0-4.4-8.79q-4.94-4.4-13.18-4.68c-5.5-.17-9.16-.27-11-.27a40.49,40.49,0,0,0-10.44,1.65,34.37,34.37,0,0,0-11.81,6q-5.78,4.41-9.35,13.19t-3.57,23.08a44.06,44.06,0,0,0,3.85,18.4,30.5,30.5,0,0,0,11.54,13.47Q2128,1637,2140.11,1637Z" transform="translate(-250 -314.63)"/><path d="M1250,508.66,828.4,752.07v219L1250,1214.48l421.6-243.41v-219Zm0,192.25c104.86,0,193,71.46,218.45,168.33L1250,995.36,1031.55,869.24C1057,772.37,1145.14,700.91,1250,700.91Z" transform="translate(-250 -314.63)"/><polygon points="1309.52 165.45 1168.79 241.03 1168.79 75.58 1309.52 0 1309.52 165.45"/></svg>