  0
SECTION
  2
HEADER
  9
$ACADVER
  1
AC1024
  9
$ACADMAINTVER
 70
     6
  9
$DWGCODEPAGE
  3
ANSI_1252
  9
$INSBASE
 10
0.0
 20
0.0
 30
0.0
  9
$EXTMIN
 10
1.000000000000000E+20
 20
1.000000000000000E+20
 30
1.000000000000000E+20
  9
$EXTMAX
 10
-1.000000000000000E+20
 20
-1.000000000000000E+20
 30
-1.000000000000000E+20
  9
$LIMMIN
 10
0.0
 20
0.0
  9
$LIMMAX
 10
12.0
 20
9.0
  9
$ORTHOMODE
 70
     0
  9
$REGENMODE
 70
     1
  9
$FILLMODE
 70
     1
  9
$QTEXTMODE
 70
     0
  9
$MIRRTEXT
 70
     1
  9
$LTSCALE
 40
1.0
  9
$ATTMODE
 70
     1
  9
$TEXTSIZE
 40
0.2
  9
$TRACEWID
 40
0.05
  9
$TEXTSTYLE
  7
Standard
  9
$CLAYER
  8
0
  9
$CELTYPE
  6
ByLayer
  9
$CECOLOR
 62
   256
  9
$CELTSCALE
 40
1.0
  9
$DISPSILH
 70
     0
  9
$DIMSCALE
 40
1.0
  9
$DIMASZ
 40
0.18
  9
$DIMEXO
 40
0.0625
  9
$DIMDLI
 40
0.38
  9
$DIMRND
 40
0.0
  9
$DIMDLE
 40
0.0
  9
$DIMEXE
 40
0.18
  9
$DIMTP
 40
0.0
  9
$DIMTM
 40
0.0
  9
$DIMTXT
 40
0.18
  9
$DIMCEN
 40
0.09
  9
$DIMTSZ
 40
0.0
  9
$DIMTOL
 70
     0
  9
$DIMLIM
 70
     0
  9
$DIMTIH
 70
     1
  9
$DIMTOH
 70
     1
  9
$DIMSE1
 70
     0
  9
$DIMSE2
 70
     0
  9
$DIMTAD
 70
     0
  9
$DIMZIN
 70
     0
  9
$DIMBLK
  1

  9
$DIMASO
 70
     1
  9
$DIMSHO
 70
     1
  9
$DIMPOST
  1

  9
$DIMAPOST
  1

  9
$DIMALT
 70
     0
  9
$DIMALTD
 70
     2
  9
$DIMALTF
 40
25.4
  9
$DIMLFAC
 40
1.0
  9
$DIMTOFL
 70
     0
  9
$DIMTVP
 40
0.0
  9
$DIMTIX
 70
     0
  9
$DIMSOXD
 70
     0
  9
$DIMSAH
 70
     0
  9
$DIMBLK1
  1

  9
$DIMBLK2
  1

  9
$DIMSTYLE
  2
Standard
  9
$DIMCLRD
 70
     0
  9
$DIMCLRE
 70
     0
  9
$DIMCLRT
 70
     0
  9
$DIMTFAC
 40
1.0
  9
$DIMGAP
 40
0.09
  9
$DIMJUST
 70
     0
  9
$DIMSD1
 70
     0
  9
$DIMSD2
 70
     0
  9
$DIMTOLJ
 70
     1
  9
$DIMTZIN
 70
     0
  9
$DIMALTZ
 70
     0
  9
$DIMALTTZ
 70
     0
  9
$DIMUPT
 70
     0
  9
$DIMDEC
 70
     4
  9
$DIMTDEC
 70
     4
  9
$DIMALTU
 70
     2
  9
$DIMALTTD
 70
     2
  9
$DIMTXSTY
  7
Standard
  9
$DIMAUNIT
 70
     0
  9
$DIMADEC
 70
     0
  9
$DIMALTRND
 40
0.0
  9
$DIMAZIN
 70
     0
  9
$DIMDSEP
 70
    46
  9
$DIMATFIT
 70
     3
  9
$DIMFRAC
 70
     0
  9
$DIMLDRBLK
  1

  9
$DIMLUNIT
 70
     2
  9
$DIMLWD
 70
    -2
  9
$DIMLWE
 70
    -2
  9
$DIMTMOVE
 70
     0
  9
$DIMFXL
 40
1.0
  9
$DIMFXLON
 70
     0
  9
$DIMJOGANG
 40
0.7853981633974483
  9
$DIMTFILL
 70
     0
  9
$DIMTFILLCLR
 70
     0
  9
$DIMARCSYM
 70
     0
  9
$DIMLTYPE
  6

  9
$DIMLTEX1
  6

  9
$DIMLTEX2
  6

  9
$DIMTXTDIRECTION
 70
     0
  9
$LUNITS
 70
     2
  9
$LUPREC
 70
     4
  9
$SKETCHINC
 40
0.1
  9
$FILLETRAD
 40
0.5
  9
$AUNITS
 70
     0
  9
$AUPREC
 70
     0
  9
$MENU
  1
.
  9
$ELEVATION
 40
0.0
  9
$PELEVATION
 40
0.0
  9
$THICKNESS
 40
0.0
  9
$LIMCHECK
 70
     0
  9
$CHAMFERA
 40
0.5
  9
$CHAMFERB
 40
0.5
  9
$CHAMFERC
 40
1.0
  9
$CHAMFERD
 40
0.0
  9
$SKPOLY
 70
     0
  9
$TDCREATE
 40
2460590.528113982
  9
$TDUCREATE
 40
2460590.778113982
  9
$TDUPDATE
 40
2460590.528114016
  9
$TDUUPDATE
 40
2460590.778114016
  9
$TDINDWG
 40
0.0000000116
  9
$TDUSRTIMER
 40
0.0000000116
  9
$USRTIMER
 70
     1
  9
$ANGBASE
 50
0.0
  9
$ANGDIR
 70
     0
  9
$PDMODE
 70
     0
  9
$PDSIZE
 40
0.0
  9
$PLINEWID
 40
0.0
  9
$SPLFRAME
 70
     0
  9
$SPLINETYPE
 70
     6
  9
$SPLINESEGS
 70
     8
  9
$HANDSEED
  5
65
  9
$SURFTAB1
 70
     6
  9
$SURFTAB2
 70
     6
  9
$SURFTYPE
 70
     6
  9
$SURFU
 70
     6
  9
$SURFV
 70
     6
  9
$UCSBASE
  2

  9
$UCSNAME
  2

  9
$UCSORG
 10
0.0
 20
0.0
 30
0.0
  9
$UCSXDIR
 10
1.0
 20
0.0
 30
0.0
  9
$UCSYDIR
 10
0.0
 20
1.0
 30
0.0
  9
$UCSORTHOREF
  2

  9
$UCSORTHOVIEW
 70
     0
  9
$UCSORGTOP
 10
0.0
 20
0.0
 30
0.0
  9
$UCSORGBOTTOM
 10
0.0
 20
0.0
 30
0.0
  9
$UCSORGLEFT
 10
0.0
 20
0.0
 30
0.0
  9
$UCSORGRIGHT
 10
0.0
 20
0.0
 30
0.0
  9
$UCSORGFRONT
 10
0.0
 20
0.0
 30
0.0
  9
$UCSORGBACK
 10
0.0
 20
0.0
 30
0.0
  9
$PUCSBASE
  2

  9
$PUCSNAME
  2

  9
$PUCSORG
 10
0.0
 20
0.0
 30
0.0
  9
$PUCSXDIR
 10
1.0
 20
0.0
 30
0.0
  9
$PUCSYDIR
 10
0.0
 20
1.0
 30
0.0
  9
$PUCSORTHOREF
  2

  9
$PUCSORTHOVIEW
 70
     0
  9
$PUCSORGTOP
 10
0.0
 20
0.0
 30
0.0
  9
$PUCSORGBOTTOM
 10
0.0
 20
0.0
 30
0.0
  9
$PUCSORGLEFT
 10
0.0
 20
0.0
 30
0.0
  9
$PUCSORGRIGHT
 10
0.0
 20
0.0
 30
0.0
  9
$PUCSORGFRONT
 10
0.0
 20
0.0
 30
0.0
  9
$PUCSORGBACK
 10
0.0
 20
0.0
 30
0.0
  9
$USERI1
 70
     0
  9
$USERI2
 70
     0
  9
$USERI3
 70
     0
  9
$USERI4
 70
     0
  9
$USERI5
 70
     0
  9
$USERR1
 40
0.0
  9
$USERR2
 40
0.0
  9
$USERR3
 40
0.0
  9
$USERR4
 40
0.0
  9
$USERR5
 40
0.0
  9
$WORLDVIEW
 70
     1
  9
$SHADEDGE
 70
     3
  9
$SHADEDIF
 70
    70
  9
$TILEMODE
 70
     1
  9
$MAXACTVP
 70
    64
  9
$PINSBASE
 10
0.0
 20
0.0
 30
0.0
  9
$PLIMCHECK
 70
     0
  9
$PEXTMIN
 10
1.000000000000000E+20
 20
1.000000000000000E+20
 30
1.000000000000000E+20
  9
$PEXTMAX
 10
-1.000000000000000E+20
 20
-1.000000000000000E+20
 30
-1.000000000000000E+20
  9
$PLIMMIN
 10
0.0
 20
0.0
  9
$PLIMMAX
 10
12.0
 20
9.0
  9
$UNITMODE
 70
     0
  9
$VISRETAIN
 70
     1
  9
$PLINEGEN
 70
     0
  9
$PSLTSCALE
 70
     1
  9
$TREEDEPTH
 70
  3020
  9
$CMLSTYLE
  2
Standard
  9
$CMLJUST
 70
     0
  9
$CMLSCALE
 40
1.0
  9
$PROXYGRAPHICS
 70
     1
  9
$MEASUREMENT
 70
     0
  9
$CELWEIGHT
370
    -1
  9
$ENDCAPS
280
     0
  9
$JOINSTYLE
280
     0
  9
$LWDISPLAY
290
     1
  9
$INSUNITS
 70
     1
  9
$HYPERLINKBASE
  1

  9
$STYLESHEET
  1

  9
$XEDIT
290
     1
  9
$CEPSNTYPE
380
     0
  9
$PSTYLEMODE
290
     1
  9
$FINGERPRINTGUID
  2
{9B6CCFA6-1703-44C3-B866-DD0591983B4C}
  9
$VERSIONGUID
  2
{FAEB1C32-E019-11D5-929B-00C0DF256EC4}
  9
$EXTNAMES
290
     1
  9
$PSVPSCALE
 40
0.0
  9
$OLESTARTUP
290
     0
  9
$SORTENTS
280
   127
  9
$INDEXCTL
280
     0
  9
$HIDETEXT
280
     1
  9
$XCLIPFRAME
280
     2
  9
$HALOGAP
280
     0
  9
$OBSCOLOR
 70
   257
  9
$OBSLTYPE
280
     0
  9
$INTERSECTIONDISPLAY
280
     0
  9
$INTERSECTIONCOLOR
 70
   257
  9
$DIMASSOC
280
     2
  9
$PROJECTNAME
  1

  9
$CAMERADISPLAY
290
     0
  9
$LENSLENGTH
 40
50.0
  9
$CAMERAHEIGHT
 40
0.0
  9
$STEPSPERSEC
 40
2.0
  9
$STEPSIZE
 40
6.0
  9
$3DDWFPREC
 40
2.0
  9
$PSOLWIDTH
 40
0.25
  9
$PSOLHEIGHT
 40
4.0
  9
$LOFTANG1
 40
1.570796326794897
  9
$LOFTANG2
 40
1.570796326794897
  9
$LOFTMAG1
 40
0.0
  9
$LOFTMAG2
 40
0.0
  9
$LOFTPARAM
 70
     7
  9
$LOFTNORMALS
280
     1
  9
$LATITUDE
 40
37.795
  9
$LONGITUDE
 40
-122.394
  9
$NORTHDIRECTION
 40
0.0
  9
$TIMEZONE
 70
 -8000
  9
$LIGHTGLYPHDISPLAY
280
     1
  9
$TILEMODELIGHTSYNCH
280
     1
  9
$CMATERIAL
347
3C
  9
$SOLIDHIST
280
     1
  9
$SHOWHIST
280
     1
  9
$DWFFRAME
280
     2
  9
$DGNFRAME
280
     2
  9
$REALWORLDSCALE
290
     1
  9
$INTERFERECOLOR
 62
   256
  9
$CSHADOW
280
     0
  9
$SHADOWPLANELOCATION
 40
0.0
  0
ENDSEC
  0
SECTION
  2
CLASSES
  0
CLASS
  1
ACDBDICTIONARYWDFLT
  2
AcDbDictionaryWithDefault
  3
ObjectDBX Classes
 90
        0
 91
        4
280
     0
281
     0
  0
CLASS
  1
VISUALSTYLE
  2
AcDbVisualStyle
  3
ObjectDBX Classes
 90
     4095
 91
        4
280
     0
281
     0
  0
CLASS
  1
MATERIAL
  2
AcDbMaterial
  3
ObjectDBX Classes
 90
     1153
 91
        4
280
     0
281
     0
  0
CLASS
  1
SUN
  2
AcDbSun
  3
SCENEOE
 90
     1024
 91
        4
280
     0
281
     0
  0
ENDSEC
  0
SECTION
  2
TABLES
  0
TABLE
  2
VPORT
  5
8
330
0
100
AcDbSymbolTable
 70
     1
  0
VPORT
  5
29
330
8
100
AcDbSymbolTableRecord
100
AcDbViewportTableRecord
  2
*Active
 70
     0
 10
0.0
 20
0.0
 11
1.0
 21
1.0
 12
0.0
 22
0.0
 13
0.0
 23
0.0
 14
0.5
 24
0.5
 15
0.5
 25
0.5
 16
0.0
 26
0.0
 36
1.0
 17
1372.5
 27
-1447.5
 37
0.0
 40
2000.0
 41
1.25
 42
50.0
 43
0.0
 44
0.0
 50
0.0
 51
0.0
 71
     0
 72
   100
 73
     1
 74
     3
 75
     0
 76
     0
 77
     0
 78
     0
281
     0
 65
     1
110
0.0
120
0.0
130
0.0
111
1.0
121
0.0
131
0.0
112
0.0
122
1.0
132
0.0
 79
     0
146
0.0
 60
     3
 61
     5
292
     1
282
     1
141
0.0
142
0.0
 63
   250
361
3F
  0
ENDTAB
  0
TABLE
  2
LTYPE
  5
5
330
0
100
AcDbSymbolTable
 70
     1
  0
LTYPE
  5
14
330
5
100
AcDbSymbolTableRecord
100
AcDbLinetypeTableRecord
  2
ByBlock
 70
     0
  3

 72
    65
 73
     0
 40
0.0
  0
LTYPE
  5
15
330
5
100
AcDbSymbolTableRecord
100
AcDbLinetypeTableRecord
  2
ByLayer
 70
     0
  3

 72
    65
 73
     0
 40
0.0
  0
LTYPE
  5
16
330
5
100
AcDbSymbolTableRecord
100
AcDbLinetypeTableRecord
  2
Continuous
 70
     0
  3
Solid line
 72
    65
 73
     0
 40
0.0
  0
ENDTAB
  0
TABLE
  2
LAYER
  5
2
330
0
100
AcDbSymbolTable
 70
     2
  0
LAYER
  5
10
330
2
100
AcDbSymbolTableRecord
100
AcDbLayerTableRecord
  2
0
 70
     0
 62
     7
  6
Continuous
370
    -3
390
F
347
3E
  0
LAYER
  5
40
330
2
100
AcDbSymbolTableRecord
100
AcDbLayerTableRecord
  2
Logo White
 70
     0
 62
     7
  6
Continuous
370
    -3
390
F
347
3E
  0
ENDTAB
  0
TABLE
  2
STYLE
  5
3
330
0
100
AcDbSymbolTable
 70
     1
  0
STYLE
  5
11
330
3
100
AcDbSymbolTableRecord
100
AcDbTextStyleTableRecord
  2
Standard
 70
     0
 40
0.0
 41
1.0
 50
0.0
 71
     0
 42
0.2
  3
txt
  4

  0
ENDTAB
  0
TABLE
  2
VIEW
  5
6
330
0
100
AcDbSymbolTable
 70
     0
  0
ENDTAB
  0
TABLE
  2
UCS
  5
7
330
0
100
AcDbSymbolTable
 70
     0
  0
ENDTAB
  0
TABLE
  2
APPID
  5
9
330
0
100
AcDbSymbolTable
 70
     1
  0
APPID
  5
12
330
9
100
AcDbSymbolTableRecord
100
AcDbRegAppTableRecord
  2
ACAD
 70
     0
  0
ENDTAB
  0
TABLE
  2
DIMSTYLE
  5
A
330
0
100
AcDbSymbolTable
 70
     1
100
AcDbDimStyleTable
  0
DIMSTYLE
105
27
330
A
100
AcDbSymbolTableRecord
100
AcDbDimStyleTableRecord
  2
Standard
 70
     0
178
     0
340
11
  0
ENDTAB
  0
TABLE
  2
BLOCK_RECORD
  5
1
330
0
100
AcDbSymbolTable
 70
     3
  0
BLOCK_RECORD
  5
1F
330
1
100
AcDbSymbolTableRecord
100
AcDbBlockTableRecord
  2
*Model_Space
340
22
 70
     0
280
     1
281
     0
  0
BLOCK_RECORD
  5
1B
330
1
100
AcDbSymbolTableRecord
100
AcDbBlockTableRecord
  2
*Paper_Space
340
1E
 70
     0
280
     1
281
     0
  0
BLOCK_RECORD
  5
23
330
1
100
AcDbSymbolTableRecord
100
AcDbBlockTableRecord
  2
*Paper_Space0
340
26
 70
     0
280
     1
281
     0
  0
BLOCK_RECORD
  5
41
330
1
100
AcDbSymbolTableRecord
100
AcDbBlockTableRecord
  2
block 2
340
0
102
{BLKREFS
331
42
102
}
 70
     0
280
     1
281
     0
  0
BLOCK_RECORD
  5
4E
330
1
100
AcDbSymbolTableRecord
100
AcDbBlockTableRecord
  2
block 3
340
0
102
{BLKREFS
331
4F
102
}
 70
     0
280
     1
281
     0
  0
ENDTAB
  0
ENDSEC
  0
SECTION
  2
BLOCKS
  0
BLOCK
  5
20
330
1F
100
AcDbEntity
  8
0
100
AcDbBlockBegin
  2
*Model_Space
 70
     0
 10
0.0
 20
0.0
 30
0.0
  3
*Model_Space
  1

  0
ENDBLK
  5
21
330
1F
100
AcDbEntity
  8
0
100
AcDbBlockEnd
  0
BLOCK
  5
1C
330
1B
100
AcDbEntity
 67
     1
  8
0
100
AcDbBlockBegin
  2
*Paper_Space
 70
     0
 10
0.0
 20
0.0
 30
0.0
  3
*Paper_Space
  1

  0
ENDBLK
  5
1D
330
1B
100
AcDbEntity
 67
     1
  8
0
100
AcDbBlockEnd
  0
BLOCK
  5
24
330
23
100
AcDbEntity
  8
0
100
AcDbBlockBegin
  2
*Paper_Space0
 70
     0
 10
0.0
 20
0.0
 30
0.0
  3
*Paper_Space0
  1

  0
ENDBLK
  5
25
330
23
100
AcDbEntity
  8
0
100
AcDbBlockEnd
  0
BLOCK
  5
43
330
41
100
AcDbEntity
  8
0
100
AcDbBlockBegin
  2
block 2
 70
     0
 10
0.0
 20
0.0
 30
0.0
  3
block 2
  1

  0
SPLINE
  5
45
330
41
100
AcDbEntity
  8
Logo White
370
     0
100
AcDbSpline
210
0.0
220
0.0
230
1.0
 70
    11
 71
     3
 72
   131
 73
   127
 74
     0
 42
0.0000000001
 43
0.0000000001
 12
1.0
 22
0.0
 32
0.0
 13
1.0
 23
0.0
 33
0.0
 40
0.0
 40
0.0
 40
0.0
 40
0.0
 40
1.0
 40
1.0
 40
1.0
 40
2.0
 40
2.0
 40
2.0
 40
3.0
 40
3.0
 40
3.0
 40
4.0
 40
4.0
 40
4.0
 40
5.0
 40
5.0
 40
5.0
 40
6.0
 40
6.0
 40
6.0
 40
7.0
 40
7.0
 40
7.0
 40
8.0
 40
8.0
 40
8.0
 40
9.0
 40
9.0
 40
9.0
 40
10.0
 40
10.0
 40
10.0
 40
11.0
 40
11.0
 40
11.0
 40
12.0
 40
12.0
 40
12.0
 40
13.0
 40
13.0
 40
13.0
 40
14.0
 40
14.0
 40
14.0
 40
15.0
 40
15.0
 40
15.0
 40
16.0
 40
16.0
 40
16.0
 40
17.0
 40
17.0
 40
17.0
 40
18.0
 40
18.0
 40
18.0
 40
19.0
 40
19.0
 40
19.0
 40
20.0
 40
20.0
 40
20.0
 40
21.0
 40
21.0
 40
21.0
 40
22.0
 40
22.0
 40
22.0
 40
23.0
 40
23.0
 40
23.0
 40
24.0
 40
24.0
 40
24.0
 40
25.0
 40
25.0
 40
25.0
 40
26.0
 40
26.0
 40
26.0
 40
27.0
 40
27.0
 40
27.0
 40
28.0
 40
28.0
 40
28.0
 40
29.0
 40
29.0
 40
29.0
 40
30.0
 40
30.0
 40
30.0
 40
31.0
 40
31.0
 40
31.0
 40
32.0
 40
32.0
 40
32.0
 40
33.0
 40
33.0
 40
33.0
 40
34.0
 40
34.0
 40
34.0
 40
35.0
 40
35.0
 40
35.0
 40
36.0
 40
36.0
 40
36.0
 40
37.0
 40
37.0
 40
37.0
 40
38.0
 40
38.0
 40
38.0
 40
39.0
 40
39.0
 40
39.0
 40
40.0
 40
40.0
 40
40.0
 40
41.0
 40
41.0
 40
41.0
 40
42.0
 40
42.0
 40
42.0
 40
42.0
 10
381.8404240861291
 20
-2106.498652176409
 30
0.0
 10
381.8404240861291
 20
-2106.498652176409
 30
0.0
 10
381.8404240861291
 20
-2055.398787222661
 30
0.0
 10
381.8404240861291
 20
-2055.398787222661
 30
0.0
 10
381.8404240861291
 20
-2052.470915906501
 30
0.0
 10
382.7508482448266
 20
-2050.9179170155
 30
0.0
 10
384.5875300258549
 20
-2050.72923490725
 30
0.0
 10
386.416295075067
 20
-2050.54846953081
 30
0.0
 10
389.7136138759197
 20
-2051.373129094849
 30
0.0
 10
394.4781669731101
 20
-2053.20189414406
 30
0.0
 10
401.8011439017737
 20
-2055.398787222661
 30
0.0
 10
410.4976738003024
 20
-2057.511235161899
 30
0.0
 10
420.5769928558093
 20
-2059.51944613225
 30
0.0
 10
430.6483951795017
 20
-2061.53821274501
 30
0.0
 10
440.5377126714557
 20
-2063.09121163601
 30
0.0
 10
450.2475842422737
 20
-2064.19031790296
 30
0.0
 10
459.9495390812772
 20
-2065.28942416991
 30
0.0
 10
467.7356448211049
 20
-2065.838317575741
 30
0.0
 10
473.5993041852471
 20
-2065.838317575741
 30
0.0
 10
490.8129180611668
 20
-2065.838317575741
 30
0.0
 10
503.9058730274974
 20
-2061.083000665671
 30
0.0
 10
512.8860858160533
 20
-2051.55257501598
 30
0.0
 10
521.8570624174936
 20
-2042.03138555342
 30
0.0
 10
526.3471688117716
 20
-2031.59185520034
 30
0.0
 10
526.3471688117716
 20
-2020.233983956739
 30
0.0
 10
526.3471688117716
 20
-2008.146453930891
 30
0.0
 10
521.4889343881059
 20
-1997.981370280721
 30
0.0
 10
511.7869795491024
 20
-1989.738733006239
 30
0.0
 10
502.0771079782844
 20
-1981.497415187059
 30
0.0
 10
489.8945771706531
 20
-1975.36722585182
 30
0.0
 10
475.2486233133241
 20
-1971.332331536891
 30
0.0
 10
466.4570926330198
 20
-1969.134119002991
 30
0.0
 10
456.2920089828513
 20
-1966.026801765689
 30
0.0
 10
444.7533723628221
 20
-1961.991907450771
 30
0.0
 10
433.2147357427912
 20
-1957.96492986765
 30
0.0
 10
421.9505458256717
 20
-1952.10127050351
 30
0.0
 10
410.9621220667686
 20
-1944.40884609016
 30
0.0
 10
399.9723788525625
 20
-1936.7164216768
 30
0.0
 10
390.8127201428706
 20
-1926.27689132372
 30
0.0
 10
383.488423758904
 20
-1913.09025503092
 30
0.0
 10
376.157530098425
 20
-1899.90361873811
 30
0.0
 10
372.5
 20
-1883.05813289158
 30
0.0
 10
372.5
 20
-1862.54060293829
 30
0.0
 10
372.5
 20
-1836.904905866761
 30
0.0
 10
378.4494239588012
 20
-1816.30029186351
 30
0.0
 10
390.357508063521
 20
-1800.72676092855
 30
0.0
 10
402.2563559811242
 20
-1785.16114672541
 30
0.0
 10
417.7362055896083
 20
-1773.80327548182
 30
0.0
 10
436.7865012465554
 20
-1766.659744474289
 30
0.0
 10
455.8288801716881
 20
-1759.51753292206
 30
0.0
 10
475.9782820955861
 20
-1755.94576741829
 30
0.0
 10
497.2267902864332
 20
-1755.94576741829
 30
0.0
 10
504.9192146997884
 20
-1755.94576741829
 30
0.0
 10
513.7107453800927
 20
-1756.76910752703
 30
0.0
 10
523.6000628720449
 20
-1758.418426655109
 30
0.0
 10
533.4906998193001
 20
-1760.06642632788
 30
0.0
 10
543.4671013612169
 20
-1762.26463886179
 30
0.0
 10
553.5451009614208
 20
-1765.01174480151
 30
0.0
 10
563.6165032851131
 20
-1767.75885074124
 30
0.0
 10
572.3130331836419
 20
-1770.780403383869
 30
0.0
 10
579.6452462994221
 20
-1774.077722184729
 30
0.0
 10
582.9412456449736
 20
-1774.8152976988
 30
0.0
 10
584.9507760706219
 20
-1775.91440396576
 30
0.0
 10
585.6883515846985
 20
-1777.373721530279
 30
0.0
 10
586.4193298222635
 20
-1778.842275281921
 30
0.0
 10
586.7874578516494
 20
-1780.85972243938
 30
0.0
 10
586.7874578516494
 20
-1783.41814627086
 30
0.0
 10
586.7874578516494
 20
-1783.41814627086
 30
0.0
 10
586.7874578516494
 20
-1830.67179901793
 30
0.0
 10
586.7874578516494
 20
-1830.67179901793
 30
0.0
 10
586.7874578516494
 20
-1842.02967026152
 30
0.0
 10
580.0054575969953
 20
-1843.858435310731
 30
0.0
 10
566.4586100066172
 20
-1836.166010897379
 30
0.0
 10
559.1263968908352
 20
-1831.40937453201
 30
0.0
 10
550.0604195076194
 20
-1827.288715622421
 30
0.0
 10
539.2593584016649
 20
-1823.802714713311
 30
0.0
 10
528.451700019199
 20
-1820.325949991329
 30
0.0
 10
516.6372972409536
 20
-1818.582949536771
 30
0.0
 10
503.8201084328375
 20
-1818.582949536771
 30
0.0
 10
489.5343658730799
 20
-1818.582949536771
 30
0.0
 10
478.0814938477106
 20
-1822.34339714879
 30
0.0
 10
469.478645275658
 20
-1829.84713945389
 30
0.0
 10
460.8678799717909
 20
-1837.35879849081
 30
0.0
 10
456.5664556857646
 20
-1845.69511709176
 30
0.0
 10
456.5664556857646
 20
-1854.848178524941
 30
0.0
 10
456.5664556857646
 20
-1865.836602283849
 30
0.0
 10
459.8637744866173
 20
-1874.62813296415
 30
0.0
 10
466.4570926330198
 20
-1881.22145111055
 30
0.0
 10
473.0504107794222
 20
-1887.814769256951
 30
0.0
 10
481.4724939750377
 20
-1892.948769838829
 30
0.0
 10
491.7325784069817
 20
-1896.606299937261
 30
0.0
 10
501.9821071965071
 20
-1900.271746767499
 30
0.0
 10
512.5166383313644
 20
-1903.388300191909
 30
0.0
 10
523.3256161691334
 20
-1905.94672402339
 30
0.0
 10
534.1253578197848
 20
-1908.514384041981
 30
0.0
 10
543.7415480641284
 20
-1911.442255358141
 30
0.0
 10
552.1715479915583
 20
-1914.73825470369
 30
0.0
 10
565.7197150372376
 20
-1919.50280780088
 30
0.0
 10
576.9839049543571
 20
-1925.91668002615
 30
0.0
 10
585.964117742913
 20
-1933.96931573708
 30
0.0
 10
594.9350943443533
 20
-1942.031187635121
 30
0.0
 10
601.8028591936672
 20
-1952.470717988201
 30
0.0
 10
606.5687317461598
 20
-1965.28790679632
 30
0.0
 10
611.3240486562336
 20
-1978.11433179155
 30
0.0
 10
613.7109432983871
 20
-1994.04939347939
 30
0.0
 10
613.7109432983871
 20
-2013.090452949211
 30
0.0
 10
613.7109432983871
 20
-2040.933598741771
 30
0.0
 10
607.6678380131107
 20
-2063.64142449714
 30
0.0
 10
595.5789885319537
 20
-2081.223166402449
 30
0.0
 10
583.4914585060997
 20
-2098.806227763051
 30
0.0
 10
566.9125026306647
 20
-2111.81341813473
 30
0.0
 10
545.8539960033704
 20
-2120.23550133034
 30
0.0
 10
524.7849337336556
 20
-2128.657584525959
 30
0.0
 10
501.0730024931108
 20
-2132.871924762021
 30
0.0
 10
474.698410452198
 20
-2132.871924762021
 30
0.0
 10
463.3405392086042
 20
-2132.871924762021
 30
0.0
 10
450.4283496187109
 20
-2131.77413795037
 30
0.0
 10
435.961841682516
 20
-2129.57592541647
 30
0.0
 10
421.4874170145085
 20
-2127.37771288257
 30
0.0
 10
408.394462048178
 20
-2124.27039564527
 30
0.0
 10
396.6763795070119
 20
-2120.23550133034
 30
0.0
 10
390.8127201428706
 20
-2118.406736281129
 30
0.0
 10
386.8715071544166
 20
-2116.57797123192
 30
0.0
 10
384.8632961840685
 20
-2114.739969995589
 30
0.0
 10
382.8445295713027
 20
-2112.911204946369
 30
0.0
 10
381.8404240861291
 20
-2110.16409900665
 30
0.0
 10
381.8404240861291
 20
-2106.498652176409
 30
0.0
  0
SPLINE
  5
46
330
41
100
AcDbEntity
  8
Logo White
370
     0
100
AcDbSpline
210
0.0
220
0.0
230
1.0
 70
    11
 71
     3
 72
   107
 73
   103
 74
     0
 42
0.0000000001
 43
0.0000000001
 12
1.0
 22
0.0
 32
0.0
 13
1.0
 23
0.0
 33
0.0
 40
0.0
 40
0.0
 40
0.0
 40
0.0
 40
1.0
 40
1.0
 40
1.0
 40
2.0
 40
2.0
 40
2.0
 40
3.0
 40
3.0
 40
3.0
 40
4.0
 40
4.0
 40
4.0
 40
5.0
 40
5.0
 40
5.0
 40
6.0
 40
6.0
 40
6.0
 40
7.0
 40
7.0
 40
7.0
 40
8.0
 40
8.0
 40
8.0
 40
9.0
 40
9.0
 40
9.0
 40
10.0
 40
10.0
 40
10.0
 40
11.0
 40
11.0
 40
11.0
 40
12.0
 40
12.0
 40
12.0
 40
13.0
 40
13.0
 40
13.0
 40
14.0
 40
14.0
 40
14.0
 40
15.0
 40
15.0
 40
15.0
 40
16.0
 40
16.0
 40
16.0
 40
17.0
 40
17.0
 40
17.0
 40
18.0
 40
18.0
 40
18.0
 40
19.0
 40
19.0
 40
19.0
 40
20.0
 40
20.0
 40
20.0
 40
21.0
 40
21.0
 40
21.0
 40
22.0
 40
22.0
 40
22.0
 40
23.0
 40
23.0
 40
23.0
 40
24.0
 40
24.0
 40
24.0
 40
25.0
 40
25.0
 40
25.0
 40
26.0
 40
26.0
 40
26.0
 40
27.0
 40
27.0
 40
27.0
 40
28.0
 40
28.0
 40
28.0
 40
29.0
 40
29.0
 40
29.0
 40
30.0
 40
30.0
 40
30.0
 40
31.0
 40
31.0
 40
31.0
 40
32.0
 40
32.0
 40
32.0
 40
33.0
 40
33.0
 40
33.0
 40
34.0
 40
34.0
 40
34.0
 40
34.0
 10
782.9403220262611
 20
-2132.323031356191
 30
0.0
 10
763.890026369314
 20
-2132.323031356191
 30
0.0
 10
746.0325183057939
 20
-2130.210583416951
 30
0.0
 10
729.3691172910003
 20
-2126.004159912711
 30
0.0
 10
712.6964800890892
 20
-2121.79773640846
 30
0.0
 10
699.1483130434099
 20
-2113.555099133981
 30
0.0
 10
688.7087826903298
 20
-2101.278886999869
 30
0.0
 10
678.2692523372498
 20
-2089.01059159758
 30
0.0
 10
673.0494871607098
 20
-2071.15308353406
 30
0.0
 10
673.0494871607098
 20
-2047.706362809309
 30
0.0
 10
673.0494871607098
 20
-2028.295855854791
 30
0.0
 10
676.80069858561
 20
-2012.45579494873
 30
0.0
 10
684.3136770778292
 20
-2000.178263359319
 30
0.0
 10
691.8160999276279
 20
-1987.90996795703
 30
0.0
 10
701.3465255773117
 20
-1978.475862544419
 30
0.0
 10
712.8851621973408
 20
-1971.881224942721
 30
0.0
 10
724.4237988173718
 20
-1965.28790679632
 30
0.0
 10
736.2368821403143
 20
-1960.807036589151
 30
0.0
 10
748.3244121661701
 20
-1958.420141947001
 30
0.0
 10
760.4132616473271
 20
-1956.04248349197
 30
0.0
 10
771.0322379215413
 20
-1954.84837644324
 30
0.0
 10
780.1932160865344
 20
-1954.84837644324
 30
0.0
 10
786.7865342329387
 20
-1954.84837644324
 30
0.0
 10
793.1054056764297
 20
-1955.03705855149
 30
0.0
 10
799.1498304170073
 20
-1955.398589304361
 30
0.0
 10
805.1929357022836
 20
-1955.76671733375
 30
0.0
 10
811.1436791163869
 20
-1956.31693019488
 30
0.0
 10
817.0073384805291
 20
-1957.04658897714
 30
0.0
 10
819.93389034139
 20
-1958.145695244089
 30
0.0
 10
821.4024440930298
 20
-1956.31693019488
 30
0.0
 10
821.4024440930298
 20
-1951.552377097691
 30
0.0
 10
821.4024440930298
 20
-1940.562633883481
 30
0.0
 10
817.7369972627894
 20
-1932.870209470129
 30
0.0
 10
810.4127008788237
 20
-1928.475103857631
 30
0.0
 10
803.0818072183447
 20
-1924.07867878982
 30
0.0
 10
793.3798523793412
 20
-1921.881785711219
 30
0.0
 10
781.2923223534854
 20
-1921.881785711219
 30
0.0
 10
767.7362385759916
 20
-1921.881785711219
 30
0.0
 10
754.5496022831849
 20
-1924.72257297742
 30
0.0
 10
741.7310940197676
 20
-1930.397550233311
 30
0.0
 10
728.9046690245341
 20
-1936.08176367632
 30
0.0
 10
718.1049273738809
 20
-1940.93208136817
 30
0.0
 10
709.3133966935766
 20
-1944.959058951281
 30
0.0
 10
704.5488435963871
 20
-1947.15595202988
 30
0.0
 10
701.4322901719715
 20
-1947.894846999259
 30
0.0
 10
699.9729726074474
 20
-1947.15595202988
 30
0.0
 10
698.5044188558077
 20
-1946.426293247619
 30
0.0
 10
697.4053125888568
 20
-1943.679187307891
 30
0.0
 10
696.6756538065965
 20
-1938.914634210711
 30
0.0
 10
696.6756538065965
 20
-1938.914634210711
 30
0.0
 10
691.1814419271432
 20
-1904.847617756441
 30
0.0
 10
691.1814419271432
 20
-1904.847617756441
 30
0.0
 10
690.4425469577654
 20
-1899.353405876991
 30
0.0
 10
690.4425469577654
 20
-1895.69587577856
 30
0.0
 10
691.1814419271432
 20
-1893.85919399753
 30
0.0
 10
691.9111007094052
 20
-1892.030428948319
 30
0.0
 10
694.2887591644412
 20
-1889.832216414419
 30
0.0
 10
698.3236534793705
 20
-1887.26587585113
 30
0.0
 10
707.8448429419368
 20
-1881.4101332188
 30
0.0
 10
720.2081391260053
 20
-1876.464814745181
 30
0.0
 10
735.4122225762767
 20
-1872.42992043025
 30
0.0
 10
750.6083892947318
 20
-1868.40426230244
 30
0.0
 10
766.4563669326035
 20
-1866.38681514497
 30
0.0
 10
782.9403220262611
 20
-1866.38681514497
 30
0.0
 10
808.2158078002249
 20
-1866.38681514497
 30
0.0
 10
828.4509743187809
 20
-1869.227602411171
 30
0.0
 10
843.6550577690523
 20
-1874.902579667059
 30
0.0
 10
858.8512244875074
 20
-1880.586793110069
 30
0.0
 10
870.3040965128785
 20
-1888.279217523421
 30
0.0
 10
877.9965209262318
 20
-1897.979852907119
 30
0.0
 10
885.6889453395852
 20
-1907.689724477939
 30
0.0
 10
890.8137097343479
 20
-1918.679467692149
 30
0.0
 10
893.3813697529386
 20
-1930.94776309444
 30
0.0
 10
895.9397935844117
 20
-1943.22397522855
 30
0.0
 10
897.2275819596161
 20
-1955.947482710189
 30
0.0
 10
897.2275819596161
 20
-1969.134119002991
 30
0.0
 10
897.2275819596161
 20
-1983.789309047439
 30
0.0
 10
897.1325811778388
 20
-1998.444499091889
 30
0.0
 10
896.9531352567028
 20
-2013.090452949211
 30
0.0
 10
896.7631336931481
 20
-2027.745642993661
 30
0.0
 10
896.4029223955768
 20
-2042.400833038109
 30
0.0
 10
895.8540289897519
 20
-2057.04810635074
 30
0.0
 10
895.3038161286258
 20
-2071.701976939879
 30
0.0
 10
894.2917939116378
 20
-2086.35716698433
 30
0.0
 10
892.8311568918125
 20
-2101.00444029696
 30
0.0
 10
891.7333700801628
 20
-2105.768993394151
 30
0.0
 10
890.5392630314345
 20
-2109.159993521469
 30
0.0
 10
889.2607108433494
 20
-2111.169523947119
 30
0.0
 10
887.9729224681469
 20
-2113.186971104591
 30
0.0
 10
885.1387324784591
 20
-2115.29018285671
 30
0.0
 10
880.7436268659567
 20
-2117.487075935311
 30
0.0
 10
875.9790737687672
 20
-2120.0547359539
 30
0.0
 10
869.1113089194514
 20
-2122.25294848781
 30
0.0
 10
860.1390128627099
 20
-2124.08171353702
 30
0.0
 10
851.158800074154
 20
-2125.918395318051
 30
0.0
 10
841.6376106115877
 20
-2127.472713664351
 30
0.0
 10
831.5675277431965
 20
-2128.75126585243
 30
0.0
 10
821.4882086876896
 20
-2130.03113749582
 30
0.0
 10
812.0620200069006
 20
-2130.94947838633
 30
0.0
 10
803.2704893265964
 20
-2131.49837179216
 30
0.0
 10
794.4789586462921
 20
-2132.048584653279
 30
0.0
 10
787.6969583916361
 20
-2132.323031356191
 30
0.0
 10
782.9403220262611
 20
-2132.323031356191
 30
0.0
  0
SPLINE
  5
47
330
41
100
AcDbEntity
  8
Logo White
370
     0
100
AcDbSpline
210
0.0
220
0.0
230
1.0
 70
    11
 71
     3
 72
    53
 73
    49
 74
     0
 42
0.0000000001
 43
0.0000000001
 12
1.0
 22
0.0
 32
0.0
 13
1.0
 23
0.0
 33
0.0
 40
0.0
 40
0.0
 40
0.0
 40
0.0
 40
1.0
 40
1.0
 40
1.0
 40
2.0
 40
2.0
 40
2.0
 40
3.0
 40
3.0
 40
3.0
 40
4.0
 40
4.0
 40
4.0
 40
5.0
 40
5.0
 40
5.0
 40
6.0
 40
6.0
 40
6.0
 40
7.0
 40
7.0
 40
7.0
 40
8.0
 40
8.0
 40
8.0
 40
9.0
 40
9.0
 40
9.0
 40
10.0
 40
10.0
 40
10.0
 40
11.0
 40
11.0
 40
11.0
 40
12.0
 40
12.0
 40
12.0
 40
13.0
 40
13.0
 40
13.0
 40
14.0
 40
14.0
 40
14.0
 40
15.0
 40
15.0
 40
15.0
 40
16.0
 40
16.0
 40
16.0
 40
16.0
 10
787.3367470940648
 20
-2084.5204852033
 30
0.0
 10
790.2632989549256
 20
-2084.5204852033
 30
0.0
 10
793.1911702710895
 20
-2084.339719826859
 30
0.0
 10
796.126958319066
 20
-2083.970272342171
 30
0.0
 10
799.0548296352299
 20
-2083.610061044601
 30
0.0
 10
801.8019355749566
 20
-2082.872485530519
 30
0.0
 10
804.3695955935473
 20
-2081.77337926357
 30
0.0
 10
806.9280194250205
 20
-2080.674272996621
 30
0.0
 10
809.0391479089594
 20
-2079.30072002676
 30
0.0
 10
810.6884670370382
 20
-2077.652720353981
 30
0.0
 10
812.3364667098122
 20
-2076.003401225909
 30
0.0
 10
813.3405721949857
 20
-2073.900189473779
 30
0.0
 10
813.7100196796764
 20
-2071.33384891049
 30
0.0
 10
814.4396784619366
 20
-2062.91176571488
 30
0.0
 10
815.1693372441987
 20
-2054.12023503457
 30
0.0
 10
815.9082322135782
 20
-2044.959256869581
 30
0.0
 10
816.6378909958385
 20
-2035.8075148917
 30
0.0
 10
816.6378909958385
 20
-2026.64653672671
 30
0.0
 10
815.9082322135782
 20
-2017.48687801702
 30
0.0
 10
815.9082322135782
 20
-2013.82934791859
 30
0.0
 10
814.4396784619366
 20
-2010.89355987061
 30
0.0
 10
811.5118071457746
 20
-2008.69534733671
 30
0.0
 10
808.2158078002249
 20
-2005.76747602055
 30
0.0
 10
803.8193827324212
 20
-2004.21447712955
 30
0.0
 10
798.3251708529679
 20
-2004.024475566001
 30
0.0
 10
792.8309589735163
 20
-2003.845029644861
 30
0.0
 10
789.1641926879747
 20
-2003.750028863091
 30
0.0
 10
787.3367470940648
 20
-2003.750028863091
 30
0.0
 10
784.3996395907834
 20
-2003.750028863091
 30
0.0
 10
780.9228748687965
 20
-2004.30024172421
 30
0.0
 10
776.8958972856817
 20
-2005.398028535859
 30
0.0
 10
772.8610029707543
 20
-2006.49713480281
 30
0.0
 10
768.9290261694168
 20
-2008.51458196028
 30
0.0
 10
765.0828139627392
 20
-2011.442453276441
 30
0.0
 10
761.2366017560635
 20
-2014.378241324421
 30
0.0
 10
758.1200483316479
 20
-2018.774666392221
 30
0.0
 10
755.7423898766119
 20
-2024.62908956924
 30
0.0
 10
753.3554952344566
 20
-2030.49274893339
 30
0.0
 10
752.1706243728459
 20
-2038.185173346739
 30
0.0
 10
752.1706243728459
 20
-2047.706362809309
 30
0.0
 10
752.1706243728459
 20
-2054.29968095571
 30
0.0
 10
753.450496016234
 20
-2060.439106478059
 30
0.0
 10
756.0168365795234
 20
-2066.11408373395
 30
0.0
 10
758.5752604109966
 20
-2071.79697772166
 30
0.0
 10
762.4214726176742
 20
-2076.277847928821
 30
0.0
 10
767.5554731995544
 20
-2079.57516672967
 30
0.0
 10
772.6815570496183
 20
-2082.872485530519
 30
0.0
 10
779.2748751960207
 20
-2084.5204852033
 30
0.0
 10
787.3367470940648
 20
-2084.5204852033
 30
0.0
  0
SPLINE
  5
48
330
41
100
AcDbEntity
  8
Logo White
370
     0
100
AcDbSpline
210
0.0
220
0.0
230
1.0
 70
    11
 71
     3
 72
   152
 73
   148
 74
     0
 42
0.0000000001
 43
0.0000000001
 12
1.0
 22
0.0
 32
0.0
 13
1.0
 23
0.0
 33
0.0
 40
0.0
 40
0.0
 40
0.0
 40
0.0
 40
1.0
 40
1.0
 40
1.0
 40
2.0
 40
2.0
 40
2.0
 40
3.0
 40
3.0
 40
3.0
 40
4.0
 40
4.0
 40
4.0
 40
5.0
 40
5.0
 40
5.0
 40
6.0
 40
6.0
 40
6.0
 40
7.0
 40
7.0
 40
7.0
 40
8.0
 40
8.0
 40
8.0
 40
9.0
 40
9.0
 40
9.0
 40
10.0
 40
10.0
 40
10.0
 40
11.0
 40
11.0
 40
11.0
 40
12.0
 40
12.0
 40
12.0
 40
13.0
 40
13.0
 40
13.0
 40
14.0
 40
14.0
 40
14.0
 40
15.0
 40
15.0
 40
15.0
 40
16.0
 40
16.0
 40
16.0
 40
17.0
 40
17.0
 40
17.0
 40
18.0
 40
18.0
 40
18.0
 40
19.0
 40
19.0
 40
19.0
 40
20.0
 40
20.0
 40
20.0
 40
21.0
 40
21.0
 40
21.0
 40
22.0
 40
22.0
 40
22.0
 40
23.0
 40
23.0
 40
23.0
 40
24.0
 40
24.0
 40
24.0
 40
25.0
 40
25.0
 40
25.0
 40
26.0
 40
26.0
 40
26.0
 40
27.0
 40
27.0
 40
27.0
 40
28.0
 40
28.0
 40
28.0
 40
29.0
 40
29.0
 40
29.0
 40
30.0
 40
30.0
 40
30.0
 40
31.0
 40
31.0
 40
31.0
 40
32.0
 40
32.0
 40
32.0
 40
33.0
 40
33.0
 40
33.0
 40
34.0
 40
34.0
 40
34.0
 40
35.0
 40
35.0
 40
35.0
 40
36.0
 40
36.0
 40
36.0
 40
37.0
 40
37.0
 40
37.0
 40
38.0
 40
38.0
 40
38.0
 40
39.0
 40
39.0
 40
39.0
 40
40.0
 40
40.0
 40
40.0
 40
41.0
 40
41.0
 40
41.0
 40
42.0
 40
42.0
 40
42.0
 40
43.0
 40
43.0
 40
43.0
 40
44.0
 40
44.0
 40
44.0
 40
45.0
 40
45.0
 40
45.0
 40
46.0
 40
46.0
 40
46.0
 40
47.0
 40
47.0
 40
47.0
 40
48.0
 40
48.0
 40
48.0
 40
49.0
 40
49.0
 40
49.0
 40
49.0
 10
1069.201427716609
 20
-2128.47681914952
 30
0.0
 10
1043.557813913259
 20
-2128.47681914952
 30
0.0
 10
1024.420434206349
 20
-2123.171289378321
 30
0.0
 10
1011.784010774671
 20
-2112.543076916991
 30
0.0
 10
999.1462678876906
 20
-2101.92278118747
 30
0.0
 10
990.809949286735
 20
-2087.08682576659
 30
0.0
 10
986.782971703622
 20
-2068.036530109639
 30
0.0
 10
983.8471836556437
 20
-2052.65168128293
 30
0.0
 10
982.1991839828679
 20
-2036.99238575331
 30
0.0
 10
981.8376532299935
 20
-2021.058643520781
 30
0.0
 10
981.4695252006059
 20
-2005.12358183295
 30
0.0
 10
981.2887598241687
 20
-1989.283520926891
 30
0.0
 10
981.2887598241687
 20
-1973.5305440708
 30
0.0
 10
981.2887598241687
 20
-1963.27969582597
 30
0.0
 10
981.3745244188285
 20
-1954.668930522101
 30
0.0
 10
981.563206527082
 20
-1947.706164891009
 30
0.0
 10
981.7439719035192
 20
-1940.751315991731
 30
0.0
 10
982.0184186064307
 20
-1932.69076354899
 30
0.0
 10
982.3878660911196
 20
-1923.529785384
 30
0.0
 10
982.3878660911196
 20
-1919.872255285571
 30
0.0
 10
980.7398664183456
 20
-1918.03557350455
 30
0.0
 10
977.4425476174929
 20
-1918.03557350455
 30
0.0
 10
977.4425476174929
 20
-1918.03557350455
 30
0.0
 10
956.5634869113328
 20
-1918.03557350455
 30
0.0
 10
956.5634869113328
 20
-1918.03557350455
 30
0.0
 10
953.2661681104801
 20
-1918.03557350455
 30
0.0
 10
951.0692750318813
 20
-1917.674042751671
 30
0.0
 10
949.9701687649303
 20
-1916.9364672376
 30
0.0
 10
948.8710624979794
 20
-1916.20680845533
 30
0.0
 10
948.3208496368534
 20
-1913.63914843674
 30
0.0
 10
948.3208496368534
 20
-1909.244042824241
 30
0.0
 10
948.3208496368534
 20
-1909.244042824241
 30
0.0
 10
948.3208496368534
 20
-1878.474345170831
 30
0.0
 10
948.3208496368534
 20
-1878.474345170831
 30
0.0
 10
948.3208496368534
 20
-1873.34826132076
 30
0.0
 10
948.8710624979794
 20
-1870.507474054561
 30
0.0
 10
949.9701687649303
 20
-1869.957261193431
 30
0.0
 10
951.0692750318813
 20
-1869.40836778761
 30
0.0
 10
953.8163809716079
 20
-1869.1339210847
 30
0.0
 10
958.2114865841086
 20
-1869.1339210847
 30
0.0
 10
958.2114865841086
 20
-1869.1339210847
 30
0.0
 10
979.6407601513947
 20
-1869.1339210847
 30
0.0
 10
979.6407601513947
 20
-1869.1339210847
 30
0.0
 10
982.5673120122556
 20
-1869.1339210847
 30
0.0
 10
984.2166311403325
 20
-1868.309261520661
 30
0.0
 10
984.5860786250214
 20
-1866.661261847879
 30
0.0
 10
984.9462899225946
 20
-1865.01194271981
 30
0.0
 10
985.3157374072835
 20
-1862.35983756186
 30
0.0
 10
985.6838654366711
 20
-1858.69439073162
 30
0.0
 10
985.6838654366711
 20
-1858.69439073162
 30
0.0
 10
987.8820779705729
 20
-1819.68205580372
 30
0.0
 10
987.8820779705729
 20
-1819.68205580372
 30
0.0
 10
987.8820779705729
 20
-1814.557291408961
 30
0.0
 10
990.4405018020461
 20
-1811.98963139037
 30
0.0
 10
995.5745023839263
 20
-1811.98963139037
 30
0.0
 10
995.5745023839263
 20
-1811.98963139037
 30
0.0
 10
1058.21300395771
 20
-1811.98963139037
 30
0.0
 10
1058.21300395771
 20
-1811.98963139037
 30
0.0
 10
1060.409897036299
 20
-1811.98963139037
 30
0.0
 10
1062.51442824373
 20
-1812.72852635975
 30
0.0
 10
1064.531875401201
 20
-1814.18784392427
 30
0.0
 10
1066.54008637154
 20
-1815.65639767591
 30
0.0
 10
1067.36474593558
 20
-1817.485162725119
 30
0.0
 10
1067.00453463801
 20
-1819.68205580372
 30
0.0
 10
1067.00453463801
 20
-1819.68205580372
 30
0.0
 10
1064.256109242981
 20
-1859.243284137439
 30
0.0
 10
1064.256109242981
 20
-1859.243284137439
 30
0.0
 10
1063.887981213589
 20
-1864.007837234631
 30
0.0
 10
1063.981662540071
 20
-1866.84994395614
 30
0.0
 10
1064.531875401201
 20
-1867.760368114839
 30
0.0
 10
1065.08076880702
 20
-1868.678709005349
 30
0.0
 10
1066.454321776881
 20
-1869.1339210847
 30
0.0
 10
1068.65253431079
 20
-1869.1339210847
 30
0.0
 10
1068.65253431079
 20
-1869.1339210847
 30
0.0
 10
1108.76265605033
 20
-1869.1339210847
 30
0.0
 10
1108.76265605033
 20
-1869.1339210847
 30
0.0
 10
1113.157761662829
 20
-1869.1339210847
 30
0.0
 10
1115.716185494301
 20
-1869.59704989586
 30
0.0
 10
1116.45508046368
 20
-1870.507474054561
 30
0.0
 10
1117.18473924594
 20
-1871.425814945071
 30
0.0
 10
1117.554186730629
 20
-1874.447367587711
 30
0.0
 10
1117.554186730629
 20
-1879.57345143778
 30
0.0
 10
1117.554186730629
 20
-1879.57345143778
 30
0.0
 10
1117.554186730629
 20
-1908.693829963109
 30
0.0
 10
1117.554186730629
 20
-1908.693829963109
 30
0.0
 10
1117.554186730629
 20
-1912.730043733351
 30
0.0
 10
1116.910292543031
 20
-1915.287148109521
 30
0.0
 10
1115.630420899641
 20
-1916.38625437647
 30
0.0
 10
1114.34263252444
 20
-1917.485360643421
 30
0.0
 10
1111.690527366491
 20
-1918.03557350455
 30
0.0
 10
1107.663549783379
 20
-1918.03557350455
 30
0.0
 10
1107.663549783379
 20
-1918.03557350455
 30
0.0
 10
1068.10232144966
 20
-1918.03557350455
 30
0.0
 10
1068.10232144966
 20
-1918.03557350455
 30
0.0
 10
1065.53598088637
 20
-1918.03557350455
 30
0.0
 10
1063.792980431819
 20
-1918.679467692149
 30
0.0
 10
1062.88255627312
 20
-1919.95801988023
 30
0.0
 10
1061.96421538261
 20
-1921.24580825544
 30
0.0
 10
1061.509003303259
 20
-1923.349020007559
 30
0.0
 10
1061.509003303259
 20
-1926.27689132372
 30
0.0
 10
1061.13955581857
 20
-1934.70821070646
 30
0.0
 10
1060.865109115661
 20
-1943.404740604979
 30
0.0
 10
1060.685663194519
 20
-1952.37571720642
 30
0.0
 10
1060.495661630961
 20
-1961.355929994979
 30
0.0
 10
1060.221214928049
 20
-1970.60267275463
 30
0.0
 10
1059.86100363048
 20
-1980.1238622172
 30
0.0
 10
1059.86100363048
 20
-1992.211392243051
 30
0.0
 10
1060.221214928049
 20
-2004.393923050689
 30
0.0
 10
1060.960109897431
 20
-2016.662218452981
 30
0.0
 10
1061.689768679689
 20
-2028.939750042389
 30
0.0
 10
1063.33776835247
 20
-2040.56415125708
 30
0.0
 10
1065.905428371059
 20
-2051.55257501598
 30
0.0
 10
1067.73419342027
 20
-2057.41623438012
 30
0.0
 10
1070.38629857822
 20
-2061.53821274501
 30
0.0
 10
1073.87229948733
 20
-2063.91587120005
 30
0.0
 10
1077.349064209309
 20
-2066.302765842211
 30
0.0
 10
1081.29027719777
 20
-2067.48763670382
 30
0.0
 10
1085.68538281027
 20
-2067.48763670382
 30
0.0
 10
1089.71236039338
 20
-2067.48763670382
 30
0.0
 10
1093.65225392653
 20
-2066.85165924803
 30
0.0
 10
1097.498466133209
 20
-2065.563870872829
 30
0.0
 10
1101.34467833989
 20
-2064.285318684741
 30
0.0
 10
1104.36755043783
 20
-2063.27989374426
 30
0.0
 10
1106.56444351643
 20
-2062.542318230189
 30
0.0
 10
1111.3210798818
 20
-2059.614446914031
 30
0.0
 10
1114.34263252444
 20
-2058.69610602351
 30
0.0
 10
1115.630420899641
 20
-2059.795212290461
 30
0.0
 10
1116.910292543031
 20
-2060.89431855741
 30
0.0
 10
1118.283845512889
 20
-2063.460659120699
 30
0.0
 10
1119.75107980923
 20
-2067.48763670382
 30
0.0
 10
1119.75107980923
 20
-2067.48763670382
 30
0.0
 10
1130.74082302344
 20
-2105.39954590946
 30
0.0
 10
1130.74082302344
 20
-2105.39954590946
 30
0.0
 10
1132.20014058796
 20
-2108.335333957441
 30
0.0
 10
1131.651247182141
 20
-2110.89375778891
 30
0.0
 10
1129.09282335066
 20
-2113.09197032281
 30
0.0
 10
1126.525163332069
 20
-2115.29018285671
 30
0.0
 10
1121.57984485845
 20
-2117.85652342
 30
0.0
 10
1114.25686792978
 20
-2120.784394736169
 30
0.0
 10
1109.861762317279
 20
-2122.25294848781
 30
0.0
 10
1105.190890546561
 20
-2123.626501457671
 30
0.0
 10
1100.245572072939
 20
-2124.905053645751
 30
0.0
 10
1095.30157305461
 20
-2126.192842020961
 30
0.0
 10
1090.26125379921
 20
-2127.10326617966
 30
0.0
 10
1085.13648940444
 20
-2127.652159585479
 30
0.0
 10
1080.00248882256
 20
-2128.202372446609
 30
0.0
 10
1074.696959051369
 20
-2128.47681914952
 30
0.0
 10
1069.201427716609
 20
-2128.47681914952
 30
0.0
  0
SPLINE
  5
49
330
41
100
AcDbEntity
  8
Logo White
370
     0
100
AcDbSpline
210
0.0
220
0.0
230
1.0
 70
    11
 71
     3
 72
   131
 73
   127
 74
     0
 42
0.0000000001
 43
0.0000000001
 12
1.0
 22
0.0
 32
0.0
 13
1.0
 23
0.0
 33
0.0
 40
0.0
 40
0.0
 40
0.0
 40
0.0
 40
1.0
 40
1.0
 40
1.0
 40
2.0
 40
2.0
 40
2.0
 40
3.0
 40
3.0
 40
3.0
 40
4.0
 40
4.0
 40
4.0
 40
5.0
 40
5.0
 40
5.0
 40
6.0
 40
6.0
 40
6.0
 40
7.0
 40
7.0
 40
7.0
 40
8.0
 40
8.0
 40
8.0
 40
9.0
 40
9.0
 40
9.0
 40
10.0
 40
10.0
 40
10.0
 40
11.0
 40
11.0
 40
11.0
 40
12.0
 40
12.0
 40
12.0
 40
13.0
 40
13.0
 40
13.0
 40
14.0
 40
14.0
 40
14.0
 40
15.0
 40
15.0
 40
15.0
 40
16.0
 40
16.0
 40
16.0
 40
17.0
 40
17.0
 40
17.0
 40
18.0
 40
18.0
 40
18.0
 40
19.0
 40
19.0
 40
19.0
 40
20.0
 40
20.0
 40
20.0
 40
21.0
 40
21.0
 40
21.0
 40
22.0
 40
22.0
 40
22.0
 40
23.0
 40
23.0
 40
23.0
 40
24.0
 40
24.0
 40
24.0
 40
25.0
 40
25.0
 40
25.0
 40
26.0
 40
26.0
 40
26.0
 40
27.0
 40
27.0
 40
27.0
 40
28.0
 40
28.0
 40
28.0
 40
29.0
 40
29.0
 40
29.0
 40
30.0
 40
30.0
 40
30.0
 40
31.0
 40
31.0
 40
31.0
 40
32.0
 40
32.0
 40
32.0
 40
33.0
 40
33.0
 40
33.0
 40
34.0
 40
34.0
 40
34.0
 40
35.0
 40
35.0
 40
35.0
 40
36.0
 40
36.0
 40
36.0
 40
37.0
 40
37.0
 40
37.0
 40
38.0
 40
38.0
 40
38.0
 40
39.0
 40
39.0
 40
39.0
 40
40.0
 40
40.0
 40
40.0
 40
41.0
 40
41.0
 40
41.0
 40
42.0
 40
42.0
 40
42.0
 40
42.0
 10
1192.276259964359
 20
-2058.69610602351
 30
0.0
 10
1193.37536623131
 20
-2053.93946965814
 30
0.0
 10
1195.2991320623
 20
-2051.92202250067
 30
0.0
 10
1198.046238002029
 20
-2052.65168128293
 30
0.0
 10
1200.79334394175
 20
-2053.39057625231
 30
0.0
 10
1203.446768555001
 20
-2054.489682519259
 30
0.0
 10
1206.01310911829
 20
-2055.94900008379
 30
0.0
 10
1212.236979780009
 20
-2058.88478813176
 30
0.0
 10
1219.47551156931
 20
-2061.44321196324
 30
0.0
 10
1227.71682938849
 20
-2063.64142449714
 30
0.0
 10
1235.95814720767
 20
-2065.838317575741
 30
0.0
 10
1244.380230403291
 20
-2067.58131803029
 30
0.0
 10
1252.992315162461
 20
-2068.86118967368
 30
0.0
 10
1261.593844279199
 20
-2070.148978048881
 30
0.0
 10
1269.381269474339
 20
-2070.783636049371
 30
0.0
 10
1276.344035105431
 20
-2070.783636049371
 30
0.0
 10
1282.937353251829
 20
-2070.783636049371
 30
0.0
 10
1288.706011834191
 20
-2070.234742643541
 30
0.0
 10
1293.651330307821
 20
-2069.13563637659
 30
0.0
 10
1298.596648781449
 20
-2068.036530109639
 30
0.0
 10
1302.623626364561
 20
-2066.20776506043
 30
0.0
 10
1305.74017978898
 20
-2063.64142449714
 30
0.0
 10
1308.84749702628
 20
-2061.083000665671
 30
0.0
 10
1310.40973210439
 20
-2057.785681864811
 30
0.0
 10
1310.40973210439
 20
-2053.75078754988
 30
0.0
 10
1310.769943401971
 20
-2047.52691688817
 30
0.0
 10
1307.568944838189
 20
-2042.486597632771
 30
0.0
 10
1300.794861315349
 20
-2038.64038542609
 30
0.0
 10
1294.01154160539
 20
-2034.79417321941
 30
0.0
 10
1282.019012361319
 20
-2030.862196418069
 30
0.0
 10
1264.8053984854
 20
-2026.827302103149
 30
0.0
 10
1253.446207786499
 20
-2023.89943078698
 30
0.0
 10
1241.63312446356
 20
-2019.87377265917
 30
0.0
 10
1229.364829061269
 20
-2014.73977207729
 30
0.0
 10
1217.08861692716
 20
-2009.613688227229
 30
0.0
 10
1206.83776868233
 20
-2001.921263813871
 30
0.0
 10
1198.59513140785
 20
-1991.66249883723
 30
0.0
 10
1190.35381358867
 20
-1981.411650592399
 30
0.0
 10
1186.233154679079
 20
-1967.67480143847
 30
0.0
 10
1186.233154679079
 20
-1950.45327083074
 30
0.0
 10
1186.233154679079
 20
-1931.4108919056
 30
0.0
 10
1191.083472370939
 20
-1915.75159637598
 30
0.0
 10
1200.79334394175
 20
-1903.474064786569
 30
0.0
 10
1210.495298780759
 20
-1891.20576938428
 30
0.0
 10
1223.04595761778
 20
-1881.96034607993
 30
0.0
 10
1238.430806444479
 20
-1875.727239231101
 30
0.0
 10
1253.81565527119
 20
-1869.502049114089
 30
0.0
 10
1270.299610364849
 20
-1866.38681514497
 30
0.0
 10
1287.88267172546
 20
-1866.38681514497
 30
0.0
 10
1301.42951931584
 20
-1866.38681514497
 30
0.0
 10
1316.539921439629
 20
-1868.49794362891
 30
0.0
 10
1333.21255864154
 20
-1872.704367133159
 30
0.0
 10
1349.87595965633
 20
-1876.920026824529
 30
0.0
 10
1363.707809592041
 20
-1882.13979200107
 30
0.0
 10
1374.696233350951
 20
-1888.364982118081
 30
0.0
 10
1378.72321093406
 20
-1890.561875196679
 30
0.0
 10
1380.82642268619
 20
-1892.48564102767
 30
0.0
 10
1381.01510479444
 20
-1894.133640700449
 30
0.0
 10
1381.195870170879
 20
-1895.781640373219
 30
0.0
 10
1380.74065809153
 20
-1898.0748536889
 30
0.0
 10
1379.641551824579
 20
-1901.00140554976
 30
0.0
 10
1379.641551824579
 20
-1901.00140554976
 30
0.0
 10
1364.80559640369
 20
-1941.112846744611
 30
0.0
 10
1364.80559640369
 20
-1941.112846744611
 30
0.0
 10
1363.707809592041
 20
-1946.246847326491
 30
0.0
 10
1359.86159738537
 20
-1947.52539951457
 30
0.0
 10
1353.266959783659
 20
-1944.959058951281
 30
0.0
 10
1344.836959856229
 20
-1940.562633883481
 30
0.0
 10
1334.86055831432
 20
-1936.261209597451
 30
0.0
 10
1323.321921694291
 20
-1932.046869361389
 30
0.0
 10
1311.78328507426
 20
-1927.839126401839
 30
0.0
 10
1299.97020175131
 20
-1925.7279979179
 30
0.0
 10
1287.88267172546
 20
-1925.7279979179
 30
0.0
 10
1282.019012361319
 20
-1925.7279979179
 30
0.0
 10
1276.523481026559
 20
-1927.101550887761
 30
0.0
 10
1271.3987166318
 20
-1929.848656827489
 30
0.0
 10
1266.26471604992
 20
-1932.595762767211
 30
0.0
 10
1263.70629221845
 20
-1936.53565630037
 30
0.0
 10
1263.70629221845
 20
-1941.66174015043
 30
0.0
 10
1263.70629221845
 20
-1948.255058296831
 30
0.0
 10
1266.90861023752
 20
-1953.01961139402
 30
0.0
 10
1273.321163007489
 20
-1955.947482710189
 30
0.0
 10
1279.72579904564
 20
-1958.88327075817
 30
0.0
 10
1289.161223913539
 20
-1961.991907450771
 30
0.0
 10
1301.618201424089
 20
-1965.28790679632
 30
0.0
 10
1311.13939088665
 20
-1967.855566814909
 30
0.0
 10
1320.66058034922
 20
-1970.50767197286
 30
0.0
 10
1330.1910059989
 20
-1973.25477791258
 30
0.0
 10
1339.710876006171
 20
-1976.00320330761
 30
0.0
 10
1348.597407468249
 20
-1980.038097622541
 30
0.0
 10
1356.838725287431
 20
-1985.34362739374
 30
0.0
 10
1365.08136256191
 20
-1990.657073896749
 30
0.0
 10
1371.674680708311
 20
-1997.895605686061
 30
0.0
 10
1376.619999181939
 20
-2007.04734766394
 30
0.0
 10
1381.563998200259
 20
-2016.20700637363
 30
0.0
 10
1384.03665743708
 20
-2028.295855854791
 30
0.0
 10
1384.03665743708
 20
-2043.31125719681
 30
0.0
 10
1384.03665743708
 20
-2060.16334031985
 30
0.0
 10
1380.82642268619
 20
-2074.174636176689
 30
0.0
 10
1374.421786648039
 20
-2085.34514476734
 30
0.0
 10
1368.007914422769
 20
-2096.522250634491
 30
0.0
 10
1359.49214990068
 20
-2105.49454669124
 30
0.0
 10
1348.871854171161
 20
-2112.267310758769
 30
0.0
 10
1338.243641709831
 20
-2119.05063046873
 30
0.0
 10
1326.7050050898
 20
-2123.900948160579
 30
0.0
 10
1314.255944311069
 20
-2126.828819476741
 30
0.0
 10
1301.798966800519
 20
-2129.7553713376
 30
0.0
 10
1289.53067139823
 20
-2131.223925089249
 30
0.0
 10
1277.44314137238
 20
-2131.223925089249
 30
0.0
 10
1270.48037574129
 20
-2131.223925089249
 30
0.0
 10
1261.50807968455
 20
-2130.486349575171
 30
0.0
 10
1250.51965592564
 20
-2129.02571255534
 30
0.0
 10
1239.52991271143
 20
-2127.566394990819
 30
0.0
 10
1228.44648817075
 20
-2125.09373575401
 30
0.0
 10
1217.27729903541
 20
-2121.609054300199
 30
0.0
 10
1206.09887371295
 20
-2118.130970122911
 30
0.0
 10
1196.484002923909
 20
-2113.64086372864
 30
0.0
 10
1188.43136721299
 20
-2108.14665184918
 30
0.0
 10
1186.96281346135
 20
-2107.047545582231
 30
0.0
 10
1185.68294181796
 20
-2105.768993394151
 30
0.0
 10
1184.585155006311
 20
-2104.300439642509
 30
0.0
 10
1183.48604873936
 20
-2102.84112207798
 30
0.0
 10
1183.116601254671
 20
-2101.00444029696
 30
0.0
 10
1183.48604873936
 20
-2098.806227763051
 30
0.0
 10
1183.48604873936
 20
-2098.806227763051
 30
0.0
 10
1192.276259964359
 20
-2058.69610602351
 30
0.0
 10
1192.276259964359
 20
-2058.69610602351
 30
0.0
  0
SPLINE
  5
4A
330
41
100
AcDbEntity
  8
Logo White
370
     0
100
AcDbSpline
210
0.0
220
0.0
230
1.0
 70
    11
 71
     3
 72
   104
 73
   100
 74
     0
 42
0.0000000001
 43
0.0000000001
 12
1.0
 22
0.0
 32
0.0
 13
1.0
 23
0.0
 33
0.0
 40
0.0
 40
0.0
 40
0.0
 40
0.0
 40
1.0
 40
1.0
 40
1.0
 40
2.0
 40
2.0
 40
2.0
 40
3.0
 40
3.0
 40
3.0
 40
4.0
 40
4.0
 40
4.0
 40
5.0
 40
5.0
 40
5.0
 40
6.0
 40
6.0
 40
6.0
 40
7.0
 40
7.0
 40
7.0
 40
8.0
 40
8.0
 40
8.0
 40
9.0
 40
9.0
 40
9.0
 40
10.0
 40
10.0
 40
10.0
 40
11.0
 40
11.0
 40
11.0
 40
12.0
 40
12.0
 40
12.0
 40
13.0
 40
13.0
 40
13.0
 40
14.0
 40
14.0
 40
14.0
 40
15.0
 40
15.0
 40
15.0
 40
16.0
 40
16.0
 40
16.0
 40
17.0
 40
17.0
 40
17.0
 40
18.0
 40
18.0
 40
18.0
 40
19.0
 40
19.0
 40
19.0
 40
20.0
 40
20.0
 40
20.0
 40
21.0
 40
21.0
 40
21.0
 40
22.0
 40
22.0
 40
22.0
 40
23.0
 40
23.0
 40
23.0
 40
24.0
 40
24.0
 40
24.0
 40
25.0
 40
25.0
 40
25.0
 40
26.0
 40
26.0
 40
26.0
 40
27.0
 40
27.0
 40
27.0
 40
28.0
 40
28.0
 40
28.0
 40
29.0
 40
29.0
 40
29.0
 40
30.0
 40
30.0
 40
30.0
 40
31.0
 40
31.0
 40
31.0
 40
32.0
 40
32.0
 40
32.0
 40
33.0
 40
33.0
 40
33.0
 40
33.0
 10
1559.86067376666
 20
-2130.67503168342
 30
0.0
 10
1529.090976113241
 20
-2130.67503168342
 30
0.0
 10
1505.36980868558
 20
-2125.00005442753
 30
0.0
 10
1488.70508821548
 20
-2113.64086372864
 30
0.0
 10
1472.032451013571
 20
-2102.29222867216
 30
0.0
 10
1460.49381439354
 20
-2087.18182654836
 30
0.0
 10
1454.089178355391
 20
-2068.310976812551
 30
0.0
 10
1447.676625585431
 20
-2049.449363263861
 30
0.0
 10
1444.47430756635
 20
-2028.84474926061
 30
0.0
 10
1444.47430756635
 20
-2006.49713480281
 30
0.0
 10
1444.47430756635
 20
-1993.679945994691
 30
0.0
 10
1444.74875426926
 20
-1980.31254432545
 30
0.0
 10
1445.298967130389
 20
-1966.387013063269
 30
0.0
 10
1445.847860536211
 20
-1952.470717988201
 30
0.0
 10
1446.75828469491
 20
-1938.45942213136
 30
0.0
 10
1448.04607307012
 20
-1924.35444494804
 30
0.0
 10
1449.324625258199
 20
-1910.25738449653
 30
0.0
 10
1450.69817822806
 20
-1896.97574742195
 30
0.0
 10
1452.1667319797
 20
-1884.51876991141
 30
0.0
 10
1452.896390761969
 20
-1876.82634549805
 30
0.0
 10
1454.089178355391
 20
-1872.34415583559
 30
0.0
 10
1455.738497483469
 20
-1871.056367460391
 30
0.0
 10
1457.38649715624
 20
-1869.7778152723
 30
0.0
 10
1461.13770858114
 20
-1869.1339210847
 30
0.0
 10
1467.00136794528
 20
-1869.1339210847
 30
0.0
 10
1467.00136794528
 20
-1869.1339210847
 30
0.0
 10
1518.651445760161
 20
-1869.1339210847
 30
0.0
 10
1518.651445760161
 20
-1869.1339210847
 30
0.0
 10
1524.14565763961
 20
-1869.1339210847
 30
0.0
 10
1528.17131576742
 20
-1869.227602411171
 30
0.0
 10
1530.73897578602
 20
-1869.40836778761
 30
0.0
 10
1533.29739961749
 20
-1869.59704989586
 30
0.0
 10
1534.03497513157
 20
-1873.34826132076
 30
0.0
 10
1532.93718831992
 20
-1880.672557704729
 30
0.0
 10
1532.93718831992
 20
-1882.13979200107
 30
0.0
 10
1532.6614221617
 20
-1887.45455795938
 30
0.0
 10
1532.112528755881
 20
-1896.606299937261
 30
0.0
 10
1531.56363535005
 20
-1905.76727810225
 30
0.0
 10
1530.91974116245
 20
-1917.03014856407
 30
0.0
 10
1530.18876292489
 20
-1930.397550233311
 30
0.0
 10
1529.45118741081
 20
-1943.77418808967
 30
0.0
 10
1528.90097454969
 20
-1957.416036461829
 30
0.0
 10
1528.540763252109
 20
-1971.332331536891
 30
0.0
 10
1528.17131576742
 20
-1985.257862799081
 30
0.0
 10
1527.99186984629
 20
-1997.70560412251
 30
0.0
 10
1527.99186984629
 20
-2008.69534733671
 30
0.0
 10
1527.99186984629
 20
-2030.31330301225
 30
0.0
 10
1530.550293677759
 20
-2045.69815183896
 30
0.0
 10
1535.68429425964
 20
-2054.84989381683
 30
0.0
 10
1540.809058654409
 20
-2064.00955252653
 30
0.0
 10
1549.60058933471
 20
-2068.586742970771
 30
0.0
 10
1562.057566845249
 20
-2068.586742970771
 30
0.0
 10
1563.516884409781
 20
-2068.586742970771
 30
0.0
 10
1565.440650240769
 20
-2068.4996589208
 30
0.0
 10
1567.827544882919
 20
-2068.310976812551
 30
0.0
 10
1570.20520333796
 20
-2068.13153089142
 30
0.0
 10
1572.497097198329
 20
-2067.8557647332
 30
0.0
 10
1574.69530973224
 20
-2067.48763670382
 30
0.0
 10
1576.89352226614
 20
-2067.12610595094
 30
0.0
 10
1578.72228731535
 20
-2066.302765842211
 30
0.0
 10
1580.18952161169
 20
-2065.014977466999
 30
0.0
 10
1581.64883917621
 20
-2063.735105823609
 30
0.0
 10
1582.38773414559
 20
-2061.99210536906
 30
0.0
 10
1582.38773414559
 20
-2059.795212290461
 30
0.0
 10
1582.38773414559
 20
-2059.795212290461
 30
0.0
 10
1582.38773414559
 20
-1880.122344843599
 30
0.0
 10
1582.38773414559
 20
-1880.122344843599
 30
0.0
 10
1582.38773414559
 20
-1877.924132309699
 30
0.0
 10
1582.568499522029
 20
-1875.54647385466
 30
0.0
 10
1582.93662755142
 20
-1872.98013329137
 30
0.0
 10
1583.298158304289
 20
-1870.421709459901
 30
0.0
 10
1584.76539260063
 20
-1869.1339210847
 30
0.0
 10
1587.33305261922
 20
-1869.1339210847
 30
0.0
 10
1587.33305261922
 20
-1869.1339210847
 30
0.0
 10
1653.26755353855
 20
-1869.1339210847
 30
0.0
 10
1653.26755353855
 20
-1869.1339210847
 30
0.0
 10
1654.72687110307
 20
-1869.1339210847
 30
0.0
 10
1656.564872339401
 20
-1869.502049114089
 30
0.0
 10
1658.761765417999
 20
-1870.233027351649
 30
0.0
 10
1660.959977951899
 20
-1870.970602865729
 30
0.0
 10
1662.05908421885
 20
-1873.34826132076
 30
0.0
 10
1662.05908421885
 20
-1877.37523890388
 30
0.0
 10
1662.05908421885
 20
-1877.37523890388
 30
0.0
 10
1662.05908421885
 20
-2101.00444029696
 30
0.0
 10
1662.05908421885
 20
-2101.00444029696
 30
0.0
 10
1662.05908421885
 20
-2105.39954590946
 30
0.0
 10
1660.68553124899
 20
-2108.51609933387
 30
0.0
 10
1657.938425309259
 20
-2110.344864383091
 30
0.0
 10
1655.19131936954
 20
-2112.181546164109
 30
0.0
 10
1649.602106708309
 20
-2114.56052407445
 30
0.0
 10
1641.18002351269
 20
-2117.487075935311
 30
0.0
 10
1636.78359844489
 20
-2118.95562968695
 30
0.0
 10
1629.820832813801
 20
-2120.698630141509
 30
0.0
 10
1620.299643351231
 20
-2122.708160567159
 30
0.0
 10
1610.77053715685
 20
-2124.72560772462
 30
0.0
 10
1600.60545350668
 20
-2126.55437277383
 30
0.0
 10
1589.80571185603
 20
-2128.202372446609
 30
0.0
 10
1578.996734018259
 20
-2129.850372119381
 30
0.0
 10
1569.01241574453
 20
-2130.67503168342
 30
0.0
 10
1559.86067376666
 20
-2130.67503168342
 30
0.0
  0
SPLINE
  5
4B
330
41
100
AcDbEntity
  8
Logo White
370
     0
100
AcDbSpline
210
0.0
220
0.0
230
1.0
 70
    11
 71
     3
 72
   152
 73
   148
 74
     0
 42
0.0000000001
 43
0.0000000001
 12
1.0
 22
0.0
 32
0.0
 13
1.0
 23
0.0
 33
0.0
 40
0.0
 40
0.0
 40
0.0
 40
0.0
 40
1.0
 40
1.0
 40
1.0
 40
2.0
 40
2.0
 40
2.0
 40
3.0
 40
3.0
 40
3.0
 40
4.0
 40
4.0
 40
4.0
 40
5.0
 40
5.0
 40
5.0
 40
6.0
 40
6.0
 40
6.0
 40
7.0
 40
7.0
 40
7.0
 40
8.0
 40
8.0
 40
8.0
 40
9.0
 40
9.0
 40
9.0
 40
10.0
 40
10.0
 40
10.0
 40
11.0
 40
11.0
 40
11.0
 40
12.0
 40
12.0
 40
12.0
 40
13.0
 40
13.0
 40
13.0
 40
14.0
 40
14.0
 40
14.0
 40
15.0
 40
15.0
 40
15.0
 40
16.0
 40
16.0
 40
16.0
 40
17.0
 40
17.0
 40
17.0
 40
18.0
 40
18.0
 40
18.0
 40
19.0
 40
19.0
 40
19.0
 40
20.0
 40
20.0
 40
20.0
 40
21.0
 40
21.0
 40
21.0
 40
22.0
 40
22.0
 40
22.0
 40
23.0
 40
23.0
 40
23.0
 40
24.0
 40
24.0
 40
24.0
 40
25.0
 40
25.0
 40
25.0
 40
26.0
 40
26.0
 40
26.0
 40
27.0
 40
27.0
 40
27.0
 40
28.0
 40
28.0
 40
28.0
 40
29.0
 40
29.0
 40
29.0
 40
30.0
 40
30.0
 40
30.0
 40
31.0
 40
31.0
 40
31.0
 40
32.0
 40
32.0
 40
32.0
 40
33.0
 40
33.0
 40
33.0
 40
34.0
 40
34.0
 40
34.0
 40
35.0
 40
35.0
 40
35.0
 40
36.0
 40
36.0
 40
36.0
 40
37.0
 40
37.0
 40
37.0
 40
38.0
 40
38.0
 40
38.0
 40
39.0
 40
39.0
 40
39.0
 40
40.0
 40
40.0
 40
40.0
 40
41.0
 40
41.0
 40
41.0
 40
42.0
 40
42.0
 40
42.0
 40
43.0
 40
43.0
 40
43.0
 40
44.0
 40
44.0
 40
44.0
 40
45.0
 40
45.0
 40
45.0
 40
46.0
 40
46.0
 40
46.0
 40
47.0
 40
47.0
 40
47.0
 40
48.0
 40
48.0
 40
48.0
 40
49.0
 40
49.0
 40
49.0
 40
49.0
 10
1742.82426273786
 20
-2128.47681914952
 30
0.0
 10
1736.591155889029
 20
-2128.47681914952
 30
0.0
 10
1733.483838651729
 20
-2125.72971320979
 30
0.0
 10
1733.483838651729
 20
-2120.23550133034
 30
0.0
 10
1733.483838651729
 20
-2120.23550133034
 30
0.0
 10
1733.483838651729
 20
-1896.606299937261
 30
0.0
 10
1733.483838651729
 20
-1896.606299937261
 30
0.0
 10
1733.483838651729
 20
-1892.948769838829
 30
0.0
 10
1734.487944136899
 20
-1890.106663117331
 30
0.0
 10
1736.505391294369
 20
-1888.08921595987
 30
0.0
 10
1738.51492172002
 20
-1886.081004989519
 30
0.0
 10
1741.725156470909
 20
-1884.33800453497
 30
0.0
 10
1746.12158153871
 20
-1882.86945078333
 30
0.0
 10
1753.44455846737
 20
-1880.311026951849
 30
0.0
 10
1762.416854524119
 20
-1877.83836771504
 30
0.0
 10
1773.045066985451
 20
-1875.452792528191
 30
0.0
 10
1783.665362714961
 20
-1873.07381461785
 30
0.0
 10
1794.28433898918
 20
-1871.056367460391
 30
0.0
 10
1804.91387090581
 20
-1869.40836778761
 30
0.0
 10
1815.532847180029
 20
-1867.760368114839
 30
0.0
 10
1824.505143236769
 20
-1866.9357085508
 30
0.0
 10
1831.83603689725
 20
-1866.9357085508
 30
0.0
 10
1850.518204524809
 20
-1866.9357085508
 30
0.0
 10
1865.90305335152
 20
-1868.678709005349
 30
0.0
 10
1877.99058337737
 20
-1872.15547372734
 30
0.0
 10
1890.079432858531
 20
-1875.641474636441
 30
0.0
 10
1901.428067915
 20
-1880.861239812981
 30
0.0
 10
1912.05759983164
 20
-1887.814769256951
 30
0.0
 10
1919.75002424499
 20
-1883.41966364445
 30
0.0
 10
1927.07300117366
 20
-1879.667132764251
 30
0.0
 10
1934.035766804751
 20
-1876.550579339841
 30
0.0
 10
1940.989296248719
 20
-1873.443262102541
 30
0.0
 10
1948.04706266159
 20
-1871.056367460391
 30
0.0
 10
1955.189274213821
 20
-1869.40836778761
 30
0.0
 10
1962.332805221351
 20
-1867.760368114839
 30
0.0
 10
1970.29967633761
 20
-1866.9357085508
 30
0.0
 10
1979.09120701792
 20
-1866.9357085508
 30
0.0
 10
2008.39235091969
 20
-1866.9357085508
 30
0.0
 10
2030.91941129863
 20
-1872.524921212031
 30
0.0
 10
2046.673707610031
 20
-1883.694110347369
 30
0.0
 10
2062.4187677343
 20
-1894.872535669831
 30
0.0
 10
2073.40851094851
 20
-1909.792936230069
 30
0.0
 10
2079.641617797341
 20
-1928.475103857631
 30
0.0
 10
2085.865488459051
 20
-1947.15595202988
 30
0.0
 10
2088.98204188347
 20
-1968.03501273604
 30
0.0
 10
2088.98204188347
 20
-1991.1122859761
 30
0.0
 10
2088.98204188347
 20
-2009.794453603659
 30
0.0
 10
2088.612594398779
 20
-2026.097643320891
 30
0.0
 10
2087.882935616521
 20
-2040.01393839595
 30
0.0
 10
2087.14536010244
 20
-2053.93946965814
 30
0.0
 10
2086.04625383549
 20
-2067.2118705456
 30
0.0
 10
2084.586936270971
 20
-2079.84961343258
 30
0.0
 10
2083.118382519329
 20
-2092.487356319571
 30
0.0
 10
2081.28961747012
 20
-2106.8680996611
 30
0.0
 10
2079.091404936211
 20
-2122.982607270071
 30
0.0
 10
2078.723276906831
 20
-2125.548947833351
 30
0.0
 10
2078.173064045699
 20
-2127.10326617966
 30
0.0
 10
2077.443405263441
 20
-2127.652159585479
 30
0.0
 10
2076.70582974936
 20
-2128.202372446609
 30
0.0
 10
2075.42595810597
 20
-2128.47681914952
 30
0.0
 10
2073.597193056759
 20
-2128.47681914952
 30
0.0
 10
2073.597193056759
 20
-2128.47681914952
 30
0.0
 10
2005.46447960353
 20
-2128.47681914952
 30
0.0
 10
2005.46447960353
 20
-2128.47681914952
 30
0.0
 10
2002.89813904024
 20
-2128.47681914952
 30
0.0
 10
2001.343820693939
 20
-2127.74716036726
 30
0.0
 10
2000.79492728812
 20
-2126.27860661562
 30
0.0
 10
2000.24471442699
 20
-2124.819289051091
 30
0.0
 10
2000.151033100519
 20
-2121.702735626681
 30
0.0
 10
2000.5191611299
 20
-2116.938182529489
 30
0.0
 10
2001.618267396851
 20
-2104.85065250363
 30
0.0
 10
2002.52869155555
 20
-2091.757697537299
 30
0.0
 10
2003.267586524929
 20
-2077.652720353981
 30
0.0
 10
2003.99724530719
 20
-2063.55565990248
 30
0.0
 10
2004.54613871302
 20
-2048.90046985803
 30
0.0
 10
2004.915586197711
 20
-2033.695066952459
 30
0.0
 10
2005.27579749528
 20
-2018.500219689309
 30
0.0
 10
2005.46447960353
 20
-2003.570582941949
 30
0.0
 10
2005.46447960353
 20
-1988.915392897499
 30
0.0
 10
2005.46447960353
 20
-1984.88841531439
 30
0.0
 10
2005.19003290062
 20
-1979.573649356071
 30
0.0
 10
2004.64113949479
 20
-1972.98033120967
 30
0.0
 10
2004.090926633669
 20
-1966.387013063269
 30
0.0
 10
2002.7173736638
 20
-1959.707930322209
 30
0.0
 10
2000.5191611299
 20
-1952.925930067549
 30
0.0
 10
1998.322268051299
 20
-1946.15184654471
 30
0.0
 10
1994.931267923979
 20
-1940.476869288819
 30
0.0
 10
1990.354077479729
 20
-1935.891762112769
 30
0.0
 10
1985.770289758981
 20
-1931.31589112383
 30
0.0
 10
1979.45141831549
 20
-1929.02399726345
 30
0.0
 10
1971.39878260457
 20
-1929.02399726345
 30
0.0
 10
1961.868356954879
 20
-1929.02399726345
 30
0.0
 10
1955.918932996079
 20
-1930.037338935741
 30
0.0
 10
1953.541274541039
 20
-1932.046869361389
 30
0.0
 10
1951.15437989889
 20
-1934.064316518859
 30
0.0
 10
1949.969509037281
 20
-1937.634762567321
 30
0.0
 10
1949.969509037281
 20
-1942.760846417379
 30
0.0
 10
1949.969509037281
 20
-1957.416036461829
 30
0.0
 10
1949.969509037281
 20
-1972.15699110093
 30
0.0
 10
1949.969509037281
 20
-1986.991627066511
 30
0.0
 10
1949.969509037281
 20
-2001.8275824874
 30
0.0
 10
1949.969509037281
 20
-2016.662218452981
 30
0.0
 10
1949.969509037281
 20
-2031.498173873861
 30
0.0
 10
1949.969509037281
 20
-2046.33280983944
 30
0.0
 10
1949.969509037281
 20
-2061.083000665671
 30
0.0
 10
1949.969509037281
 20
-2075.728954522991
 30
0.0
 10
1949.969509037281
 20
-2090.384144567441
 30
0.0
 10
1949.969509037281
 20
-2105.21878053302
 30
0.0
 10
1949.969509037281
 20
-2120.23550133034
 30
0.0
 10
1949.969509037281
 20
-2125.72971320979
 30
0.0
 10
1947.403168473989
 20
-2128.47681914952
 30
0.0
 10
1942.277084623929
 20
-2128.47681914952
 30
0.0
 10
1942.277084623929
 20
-2128.47681914952
 30
0.0
 10
1874.144371170691
 20
-2128.47681914952
 30
0.0
 10
1874.144371170691
 20
-2128.47681914952
 30
0.0
 10
1870.848371825141
 20
-2128.47681914952
 30
0.0
 10
1869.199052697069
 20
-2126.648054100311
 30
0.0
 10
1869.199052697069
 20
-2122.982607270071
 30
0.0
 10
1869.199052697069
 20
-2122.982607270071
 30
0.0
 10
1869.199052697069
 20
-1989.46428630333
 30
0.0
 10
1869.199052697069
 20
-1989.46428630333
 30
0.0
 10
1869.199052697069
 20
-1977.74488430686
 30
0.0
 10
1868.10126588542
 20
-1967.400354735561
 30
0.0
 10
1865.90305335152
 20
-1958.420141947001
 30
0.0
 10
1863.704840817611
 20
-1949.449165345561
 30
0.0
 10
1859.9443932056
 20
-1942.30563433803
 30
0.0
 10
1854.6388634344
 20
-1936.990868379709
 30
0.0
 10
1849.32541693138
 20
-1931.68533860852
 30
0.0
 10
1841.7266738445
 20
-1929.02399726345
 30
0.0
 10
1831.83603689725
 20
-1929.02399726345
 30
0.0
 10
1829.639143818649
 20
-1929.02399726345
 30
0.0
 10
1827.440931284749
 20
-1929.2126793717
 30
0.0
 10
1825.242718750849
 20
-1929.57421012458
 30
0.0
 10
1823.04582567225
 20
-1929.94233815396
 30
0.0
 10
1821.02837851478
 20
-1930.49255101509
 30
0.0
 10
1819.199613465571
 20
-1931.22220979735
 30
0.0
 10
1815.532847180029
 20
-1932.69076354899
 30
0.0
 10
1813.704082130811
 20
-1935.43786948872
 30
0.0
 10
1813.704082130811
 20
-1939.46352761653
 30
0.0
 10
1813.704082130811
 20
-1939.46352761653
 30
0.0
 10
1813.704082130811
 20
-2118.58618220226
 30
0.0
 10
1813.704082130811
 20
-2118.58618220226
 30
0.0
 10
1813.704082130811
 20
-2125.17950034867
 30
0.0
 10
1810.95697619109
 20
-2128.47681914952
 30
0.0
 10
1805.46276431164
 20
-2128.47681914952
 30
0.0
 10
1805.46276431164
 20
-2128.47681914952
 30
0.0
 10
1742.82426273786
 20
-2128.47681914952
 30
0.0
 10
1742.82426273786
 20
-2128.47681914952
 30
0.0
  0
SPLINE
  5
4C
330
41
100
AcDbEntity
  8
Logo White
370
     0
100
AcDbSpline
210
0.0
220
0.0
230
1.0
 70
    11
 71
     3
 72
   107
 73
   103
 74
     0
 42
0.0000000001
 43
0.0000000001
 12
1.0
 22
0.0
 32
0.0
 13
1.0
 23
0.0
 33
0.0
 40
0.0
 40
0.0
 40
0.0
 40
0.0
 40
1.0
 40
1.0
 40
1.0
 40
2.0
 40
2.0
 40
2.0
 40
3.0
 40
3.0
 40
3.0
 40
4.0
 40
4.0
 40
4.0
 40
5.0
 40
5.0
 40
5.0
 40
6.0
 40
6.0
 40
6.0
 40
7.0
 40
7.0
 40
7.0
 40
8.0
 40
8.0
 40
8.0
 40
9.0
 40
9.0
 40
9.0
 40
10.0
 40
10.0
 40
10.0
 40
11.0
 40
11.0
 40
11.0
 40
12.0
 40
12.0
 40
12.0
 40
13.0
 40
13.0
 40
13.0
 40
14.0
 40
14.0
 40
14.0
 40
15.0
 40
15.0
 40
15.0
 40
16.0
 40
16.0
 40
16.0
 40
17.0
 40
17.0
 40
17.0
 40
18.0
 40
18.0
 40
18.0
 40
19.0
 40
19.0
 40
19.0
 40
20.0
 40
20.0
 40
20.0
 40
21.0
 40
21.0
 40
21.0
 40
22.0
 40
22.0
 40
22.0
 40
23.0
 40
23.0
 40
23.0
 40
24.0
 40
24.0
 40
24.0
 40
25.0
 40
25.0
 40
25.0
 40
26.0
 40
26.0
 40
26.0
 40
27.0
 40
27.0
 40
27.0
 40
28.0
 40
28.0
 40
28.0
 40
29.0
 40
29.0
 40
29.0
 40
30.0
 40
30.0
 40
30.0
 40
31.0
 40
31.0
 40
31.0
 40
32.0
 40
32.0
 40
32.0
 40
33.0
 40
33.0
 40
33.0
 40
34.0
 40
34.0
 40
34.0
 40
34.0
 10
2258.21274006665
 20
-2132.323031356191
 30
0.0
 10
2239.1624444097
 20
-2132.323031356191
 30
0.0
 10
2221.30493634618
 20
-2130.210583416951
 30
0.0
 10
2204.641535331381
 20
-2126.004159912711
 30
0.0
 10
2187.968898129469
 20
-2121.79773640846
 30
0.0
 10
2174.42073108379
 20
-2113.555099133981
 30
0.0
 10
2163.98120073071
 20
-2101.278886999869
 30
0.0
 10
2153.541670377639
 20
-2089.01059159758
 30
0.0
 10
2148.321905201101
 20
-2071.15308353406
 30
0.0
 10
2148.321905201101
 20
-2047.706362809309
 30
0.0
 10
2148.321905201101
 20
-2028.295855854791
 30
0.0
 10
2152.07311662599
 20
-2012.45579494873
 30
0.0
 10
2159.586095118209
 20
-2000.178263359319
 30
0.0
 10
2167.08851796801
 20
-1987.90996795703
 30
0.0
 10
2176.618943617701
 20
-1978.475862544419
 30
0.0
 10
2188.15758023773
 20
-1971.881224942721
 30
0.0
 10
2199.696216857759
 20
-1965.28790679632
 30
0.0
 10
2211.5093001807
 20
-1960.807036589151
 30
0.0
 10
2223.59683020655
 20
-1958.420141947001
 30
0.0
 10
2235.685679687711
 20
-1956.04248349197
 30
0.0
 10
2246.304655961931
 20
-1954.84837644324
 30
0.0
 10
2255.46563412692
 20
-1954.84837644324
 30
0.0
 10
2262.058952273321
 20
-1954.84837644324
 30
0.0
 10
2268.37782371681
 20
-1955.03705855149
 30
0.0
 10
2274.422248457391
 20
-1955.398589304361
 30
0.0
 10
2280.465353742669
 20
-1955.76671733375
 30
0.0
 10
2286.416097156769
 20
-1956.31693019488
 30
0.0
 10
2292.279756520909
 20
-1957.04658897714
 30
0.0
 10
2295.20630838177
 20
-1958.145695244089
 30
0.0
 10
2296.67486213341
 20
-1956.31693019488
 30
0.0
 10
2296.67486213341
 20
-1951.552377097691
 30
0.0
 10
2296.67486213341
 20
-1940.562633883481
 30
0.0
 10
2293.009415303181
 20
-1932.870209470129
 30
0.0
 10
2285.685118919209
 20
-1928.475103857631
 30
0.0
 10
2278.35422525873
 20
-1924.07867878982
 30
0.0
 10
2268.65227041973
 20
-1921.881785711219
 30
0.0
 10
2256.564740393871
 20
-1921.881785711219
 30
0.0
 10
2243.008656616381
 20
-1921.881785711219
 30
0.0
 10
2229.822020323571
 20
-1924.72257297742
 30
0.0
 10
2217.00351206015
 20
-1930.397550233311
 30
0.0
 10
2204.17708706492
 20
-1936.08176367632
 30
0.0
 10
2193.37734541427
 20
-1940.93208136817
 30
0.0
 10
2184.58581473396
 20
-1944.959058951281
 30
0.0
 10
2179.821261636771
 20
-1947.15595202988
 30
0.0
 10
2176.704708212361
 20
-1947.894846999259
 30
0.0
 10
2175.245390647829
 20
-1947.15595202988
 30
0.0
 10
2173.77683689619
 20
-1946.426293247619
 30
0.0
 10
2172.677730629241
 20
-1943.679187307891
 30
0.0
 10
2171.94807184698
 20
-1938.914634210711
 30
0.0
 10
2171.94807184698
 20
-1938.914634210711
 30
0.0
 10
2166.453859967531
 20
-1904.847617756441
 30
0.0
 10
2166.453859967531
 20
-1904.847617756441
 30
0.0
 10
2165.714964998151
 20
-1899.353405876991
 30
0.0
 10
2165.714964998151
 20
-1895.69587577856
 30
0.0
 10
2166.453859967531
 20
-1893.85919399753
 30
0.0
 10
2167.183518749789
 20
-1892.030428948319
 30
0.0
 10
2169.561177204831
 20
-1889.832216414419
 30
0.0
 10
2173.596071519751
 20
-1887.26587585113
 30
0.0
 10
2183.117260982321
 20
-1881.4101332188
 30
0.0
 10
2195.480557166389
 20
-1876.464814745181
 30
0.0
 10
2210.684640616661
 20
-1872.42992043025
 30
0.0
 10
2225.880807335121
 20
-1868.40426230244
 30
0.0
 10
2241.728784972991
 20
-1866.38681514497
 30
0.0
 10
2258.21274006665
 20
-1866.38681514497
 30
0.0
 10
2283.488225840611
 20
-1866.38681514497
 30
0.0
 10
2303.72339235917
 20
-1869.227602411171
 30
0.0
 10
2318.92747580944
 20
-1874.902579667059
 30
0.0
 10
2334.123642527889
 20
-1880.586793110069
 30
0.0
 10
2345.57651455326
 20
-1888.279217523421
 30
0.0
 10
2353.268938966619
 20
-1897.979852907119
 30
0.0
 10
2360.961363379971
 20
-1907.689724477939
 30
0.0
 10
2366.08612777473
 20
-1918.679467692149
 30
0.0
 10
2368.653787793321
 20
-1930.94776309444
 30
0.0
 10
2371.212211624799
 20
-1943.22397522855
 30
0.0
 10
2372.5
 20
-1955.947482710189
 30
0.0
 10
2372.5
 20
-1969.134119002991
 30
0.0
 10
2372.5
 20
-1983.789309047439
 30
0.0
 10
2372.404999218219
 20
-1998.444499091889
 30
0.0
 10
2372.22555329709
 20
-2013.090452949211
 30
0.0
 10
2372.03555173353
 20
-2027.745642993661
 30
0.0
 10
2371.675340435961
 20
-2042.400833038109
 30
0.0
 10
2371.126447030139
 20
-2057.04810635074
 30
0.0
 10
2370.57623416901
 20
-2071.701976939879
 30
0.0
 10
2369.56421195202
 20
-2086.35716698433
 30
0.0
 10
2368.1035749322
 20
-2101.00444029696
 30
0.0
 10
2367.00578812055
 20
-2105.768993394151
 30
0.0
 10
2365.81168107182
 20
-2109.159993521469
 30
0.0
 10
2364.53312888373
 20
-2111.169523947119
 30
0.0
 10
2363.245340508529
 20
-2113.186971104591
 30
0.0
 10
2360.411150518839
 20
-2115.29018285671
 30
0.0
 10
2356.016044906341
 20
-2117.487075935311
 30
0.0
 10
2351.251491809151
 20
-2120.0547359539
 30
0.0
 10
2344.383726959841
 20
-2122.25294848781
 30
0.0
 10
2335.411430903099
 20
-2124.08171353702
 30
0.0
 10
2326.43121811454
 20
-2125.918395318051
 30
0.0
 10
2316.91002865197
 20
-2127.472713664351
 30
0.0
 10
2306.83994578358
 20
-2128.75126585243
 30
0.0
 10
2296.76062672807
 20
-2130.03113749582
 30
0.0
 10
2287.334438047281
 20
-2130.94947838633
 30
0.0
 10
2278.54290736698
 20
-2131.49837179216
 30
0.0
 10
2269.75137668668
 20
-2132.048584653279
 30
0.0
 10
2262.96937643202
 20
-2132.323031356191
 30
0.0
 10
2258.21274006665
 20
-2132.323031356191
 30
0.0
  0
SPLINE
  5
4D
330
41
100
AcDbEntity
  8
Logo White
370
     0
100
AcDbSpline
210
0.0
220
0.0
230
1.0
 70
    11
 71
     3
 72
    53
 73
    49
 74
     0
 42
0.0000000001
 43
0.0000000001
 12
1.0
 22
0.0
 32
0.0
 13
1.0
 23
0.0
 33
0.0
 40
0.0
 40
0.0
 40
0.0
 40
0.0
 40
1.0
 40
1.0
 40
1.0
 40
2.0
 40
2.0
 40
2.0
 40
3.0
 40
3.0
 40
3.0
 40
4.0
 40
4.0
 40
4.0
 40
5.0
 40
5.0
 40
5.0
 40
6.0
 40
6.0
 40
6.0
 40
7.0
 40
7.0
 40
7.0
 40
8.0
 40
8.0
 40
8.0
 40
9.0
 40
9.0
 40
9.0
 40
10.0
 40
10.0
 40
10.0
 40
11.0
 40
11.0
 40
11.0
 40
12.0
 40
12.0
 40
12.0
 40
13.0
 40
13.0
 40
13.0
 40
14.0
 40
14.0
 40
14.0
 40
15.0
 40
15.0
 40
15.0
 40
16.0
 40
16.0
 40
16.0
 40
16.0
 10
2262.60916513445
 20
-2084.5204852033
 30
0.0
 10
2265.535716995309
 20
-2084.5204852033
 30
0.0
 10
2268.46358831147
 20
-2084.339719826859
 30
0.0
 10
2271.39937635945
 20
-2083.970272342171
 30
0.0
 10
2274.32724767561
 20
-2083.610061044601
 30
0.0
 10
2277.07435361534
 20
-2082.872485530519
 30
0.0
 10
2279.642013633929
 20
-2081.77337926357
 30
0.0
 10
2282.20043746541
 20
-2080.674272996621
 30
0.0
 10
2284.311565949351
 20
-2079.30072002676
 30
0.0
 10
2285.96088507742
 20
-2077.652720353981
 30
0.0
 10
2287.6088847502
 20
-2076.003401225909
 30
0.0
 10
2288.61299023537
 20
-2073.900189473779
 30
0.0
 10
2288.98243772006
 20
-2071.33384891049
 30
0.0
 10
2289.71209650232
 20
-2062.91176571488
 30
0.0
 10
2290.441755284581
 20
-2054.12023503457
 30
0.0
 10
2291.18065025396
 20
-2044.959256869581
 30
0.0
 10
2291.91030903622
 20
-2035.8075148917
 30
0.0
 10
2291.91030903622
 20
-2026.64653672671
 30
0.0
 10
2291.18065025396
 20
-2017.48687801702
 30
0.0
 10
2291.18065025396
 20
-2013.82934791859
 30
0.0
 10
2289.71209650232
 20
-2010.89355987061
 30
0.0
 10
2286.78422518616
 20
-2008.69534733671
 30
0.0
 10
2283.488225840611
 20
-2005.76747602055
 30
0.0
 10
2279.091800772811
 20
-2004.21447712955
 30
0.0
 10
2273.59758889335
 20
-2004.024475566001
 30
0.0
 10
2268.1033770139
 20
-2003.845029644861
 30
0.0
 10
2264.43661072836
 20
-2003.750028863091
 30
0.0
 10
2262.60916513445
 20
-2003.750028863091
 30
0.0
 10
2259.672057631171
 20
-2003.750028863091
 30
0.0
 10
2256.19529290918
 20
-2004.30024172421
 30
0.0
 10
2252.168315326071
 20
-2005.398028535859
 30
0.0
 10
2248.13342101114
 20
-2006.49713480281
 30
0.0
 10
2244.201444209801
 20
-2008.51458196028
 30
0.0
 10
2240.35523200313
 20
-2011.442453276441
 30
0.0
 10
2236.509019796449
 20
-2014.378241324421
 30
0.0
 10
2233.39246637203
 20
-2018.774666392221
 30
0.0
 10
2231.014807916999
 20
-2024.62908956924
 30
0.0
 10
2228.62791327484
 20
-2030.49274893339
 30
0.0
 10
2227.44304241323
 20
-2038.185173346739
 30
0.0
 10
2227.44304241323
 20
-2047.706362809309
 30
0.0
 10
2227.44304241323
 20
-2054.29968095571
 30
0.0
 10
2228.72291405662
 20
-2060.439106478059
 30
0.0
 10
2231.289254619911
 20
-2066.11408373395
 30
0.0
 10
2233.84767845138
 20
-2071.79697772166
 30
0.0
 10
2237.69389065806
 20
-2076.277847928821
 30
0.0
 10
2242.82789123994
 20
-2079.57516672967
 30
0.0
 10
2247.95397509
 20
-2082.872485530519
 30
0.0
 10
2254.54729323641
 20
-2084.5204852033
 30
0.0
 10
2262.60916513445
 20
-2084.5204852033
 30
0.0
  0
ENDBLK
  5
44
330
41
100
AcDbEntity
  8
0
100
AcDbBlockEnd
  0
BLOCK
  5
50
330
4E
100
AcDbEntity
  8
0
100
AcDbBlockBegin
  2
block 3
 70
     0
 10
0.0
 20
0.0
 30
0.0
  3
block 3
  1

  0
POLYLINE
  5
52
330
4E
100
AcDbEntity
  8
Logo White
370
     0
100
AcDb2dPolyline
 66
     1
 10
0.0
 20
0.0
 30
0.0
  0
VERTEX
  5
53
330
52
100
AcDbEntity
  8
Logo White
370
     0
100
AcDbVertex
100
AcDb2dVertex
 10
1372.500933642459
 20
-956.1613860862872
 30
0.0
  0
VERTEX
  5
54
330
52
100
AcDbEntity
  8
Logo White
370
     0
100
AcDbVertex
100
AcDb2dVertex
 10
950.9002088471007
 20
-1199.573646241701
 30
0.0
  0
VERTEX
  5
55
330
52
100
AcDbEntity
  8
Logo White
370
     0
100
AcDbVertex
100
AcDb2dVertex
 10
950.9002088471007
 20
-1418.56508736176
 30
0.0
  0
VERTEX
  5
56
330
52
100
AcDbEntity
  8
Logo White
370
     0
100
AcDbVertex
100
AcDb2dVertex
 10
1372.500933642459
 20
-1661.97548023225
 30
0.0
  0
VERTEX
  5
57
330
52
100
AcDbEntity
  8
Logo White
370
     0
100
AcDbVertex
100
AcDb2dVertex
 10
1794.099791152899
 20
-1418.56508736176
 30
0.0
  0
VERTEX
  5
58
330
52
100
AcDbEntity
  8
Logo White
370
     0
100
AcDbVertex
100
AcDb2dVertex
 10
1794.099791152899
 20
-1199.573646241701
 30
0.0
  0
VERTEX
  5
59
330
52
100
AcDbEntity
  8
Logo White
370
     0
100
AcDbVertex
100
AcDb2dVertex
 10
1372.500933642459
 20
-956.1613860862872
 30
0.0
  0
SEQEND
  5
5A
330
52
100
AcDbEntity
  8
Logo White
370
     0
  0
SPLINE
  5
5B
330
4E
100
AcDbEntity
  8
Logo White
370
     0
100
AcDbSpline
210
0.0
220
0.0
230
1.0
 70
    11
 71
     3
 72
    17
 73
    13
 74
     0
 42
0.0000000001
 43
0.0000000001
 12
1.0
 22
0.0
 32
0.0
 13
1.0
 23
0.0
 33
0.0
 40
0.0
 40
0.0
 40
0.0
 40
0.0
 40
1.0
 40
1.0
 40
1.0
 40
2.0
 40
2.0
 40
2.0
 40
3.0
 40
3.0
 40
3.0
 40
4.0
 40
4.0
 40
4.0
 40
4.0
 10
1372.499066357541
 20
-1148.410039370079
 30
0.0
 10
1477.35691799175
 20
-1148.410039370079
 30
0.0
 10
1565.500702286259
 20
-1219.866365135031
 30
0.0
 10
1590.954596704891
 20
-1316.73503822909
 30
0.0
 10
1590.954596704891
 20
-1316.73503822909
 30
0.0
 10
1372.499066357541
 20
-1442.8589310224
 30
0.0
 10
1372.499066357541
 20
-1442.8589310224
 30
0.0
 10
1372.499066357541
 20
-1442.8589310224
 30
0.0
 10
1154.0468037588
 20
-1316.73503822909
 30
0.0
 10
1154.0468037588
 20
-1316.73503822909
 30
0.0
 10
1179.499297713741
 20
-1219.867765598719
 30
0.0
 10
1267.64308200825
 20
-1148.410039370079
 30
0.0
 10
1372.499066357541
 20
-1148.410039370079
 30
0.0
  0
POLYLINE
  5
5C
330
4E
100
AcDbEntity
  8
Logo White
370
     0
100
AcDb2dPolyline
 66
     1
 10
0.0
 20
0.0
 30
0.0
  0
VERTEX
  5
5D
330
5C
100
AcDbEntity
  8
Logo White
370
     0
100
AcDbVertex
100
AcDb2dVertex
 10
1682.021148724059
 20
-927.5765216741529
 30
0.0
  0
VERTEX
  5
5E
330
5C
100
AcDbEntity
  8
Logo White
370
     0
100
AcDbVertex
100
AcDb2dVertex
 10
1541.29322055328
 20
-1003.156279368821
 30
0.0
  0
VERTEX
  5
5F
330
5C
100
AcDbEntity
  8
Logo White
370
     0
100
AcDbVertex
100
AcDb2dVertex
 10
1541.29322055328
 20
-837.7078329326487
 30
0.0
  0
VERTEX
  5
60
330
5C
100
AcDbEntity
  8
Logo White
370
     0
100
AcDbVertex
100
AcDb2dVertex
 10
1682.021148724059
 20
-762.1280752379807
 30
0.0
  0
VERTEX
  5
61
330
5C
100
AcDbEntity
  8
Logo White
370
     0
100
AcDbVertex
100
AcDb2dVertex
 10
1682.021148724059
 20
-927.5765216741529
 30
0.0
  0
SEQEND
  5
62
330
5C
100
AcDbEntity
  8
Logo White
370
     0
  0
ENDBLK
  5
51
330
4E
100
AcDbEntity
  8
0
100
AcDbBlockEnd
  0
ENDSEC
  0
SECTION
  2
ENTITIES
  0
INSERT
  5
42
330
1F
100
AcDbEntity
  8
Logo White
100
AcDbBlockReference
  2
block 2
 10
0.0
 20
0.0
 30
0.0
  0
INSERT
  5
4F
330
1F
100
AcDbEntity
  8
Logo White
100
AcDbBlockReference
  2
block 3
 10
0.0
 20
0.0
 30
0.0
  0
ENDSEC
  0
SECTION
  2
OBJECTS
  0
DICTIONARY
  5
C
330
0
100
AcDbDictionary
281
     1
  3
ACAD_GROUP
350
D
  3
ACAD_LAYOUT
350
1A
  3
ACAD_MATERIAL
350
3B
  3
ACAD_MLEADERSTYLE
350
64
  3
ACAD_MLINESTYLE
350
17
  3
ACAD_PLOTSETTINGS
350
19
  3
ACAD_PLOTSTYLENAME
350
E
  3
ACAD_TABLESTYLE
350
63
  3
ACAD_VISUALSTYLE
350
2A
  0
SUN
  5
3F
330
29
100
AcDbSun
 90
        1
290
     0
 63
     7
421
 16777215
 40
1.0
291
     1
 91
  2455826
 92
 54000000
292
     0
 70
     2
 71
   256
280
     1
  0
DICTIONARY
  5
D
102
{ACAD_REACTORS
330
C
102
}
330
C
100
AcDbDictionary
281
     1
  0
DICTIONARY
  5
1A
102
{ACAD_REACTORS
330
C
102
}
330
C
100
AcDbDictionary
281
     1
  3
Layout1
350
1E
  3
Layout2
350
26
  3
Model
350
22
  0
DICTIONARY
  5
3B
102
{ACAD_REACTORS
330
C
102
}
330
C
100
AcDbDictionary
281
     1
  3
ByBlock
350
3D
  3
ByLayer
350
3C
  3
Global
350
3E
  0
DICTIONARY
  5
64
102
{ACAD_REACTORS
330
C
102
}
330
C
100
AcDbDictionary
281
     1
  0
DICTIONARY
  5
17
102
{ACAD_REACTORS
330
C
102
}
330
C
100
AcDbDictionary
281
     1
  3
Standard
350
18
  0
DICTIONARY
  5
19
102
{ACAD_REACTORS
330
C
102
}
330
C
100
AcDbDictionary
281
     1
  0
ACDBDICTIONARYWDFLT
  5
E
102
{ACAD_REACTORS
330
C
102
}
330
C
100
AcDbDictionary
281
     1
  3
Normal
350
F
100
AcDbDictionaryWithDefault
340
F
  0
DICTIONARY
  5
63
102
{ACAD_REACTORS
330
C
102
}
330
C
100
AcDbDictionary
281
     1
  0
DICTIONARY
  5
2A
102
{ACAD_REACTORS
330
C
102
}
330
C
100
AcDbDictionary
281
     1
  3
2dWireframe
350
2F
  3
3D Hidden
350
31
  3
3dWireframe
350
30
  3
Basic
350
32
  3
Brighten
350
36
  3
ColorChange
350
3A
  3
Conceptual
350
34
  3
Dim
350
35
  3
Facepattern
350
39
  3
Flat
350
2B
  3
FlatWithEdges
350
2C
  3
Gouraud
350
2D
  3
GouraudWithEdges
350
2E
  3
Linepattern
350
38
  3
Realistic
350
33
  3
Thicken
350
37
  0
LAYOUT
  5
1E
102
{ACAD_REACTORS
330
1A
102
}
330
1A
100
AcDbPlotSettings
  1

  2
none_device
  4

  6

 40
0.0
 41
0.0
 42
0.0
 43
0.0
 44
0.0
 45
0.0
 46
0.0
 47
0.0
 48
0.0
 49
0.0
140
0.0
141
0.0
142
1.0
143
1.0
 70
   688
 72
     0
 73
     0
 74
     5
  7

 75
    16
 76
     0
 77
     2
 78
   300
147
1.0
148
0.0
149
0.0
100
AcDbLayout
  1
Layout1
 70
     1
 71
     1
 10
0.0
 20
0.0
 11
12.0
 21
9.0
 12
0.0
 22
0.0
 32
0.0
 14
1.000000000000000E+20
 24
1.000000000000000E+20
 34
1.000000000000000E+20
 15
-1.000000000000000E+20
 25
-1.000000000000000E+20
 35
-1.000000000000000E+20
146
0.0
 13
0.0
 23
0.0
 33
0.0
 16
1.0
 26
0.0
 36
0.0
 17
0.0
 27
1.0
 37
0.0
 76
     0
330
1B
  0
LAYOUT
  5
26
102
{ACAD_REACTORS
330
1A
102
}
330
1A
100
AcDbPlotSettings
  1

  2
none_device
  4

  6

 40
0.0
 41
0.0
 42
0.0
 43
0.0
 44
0.0
 45
0.0
 46
0.0
 47
0.0
 48
0.0
 49
0.0
140
0.0
141
0.0
142
1.0
143
1.0
 70
   688
 72
     0
 73
     0
 74
     5
  7

 75
    16
 76
     0
 77
     2
 78
   300
147
1.0
148
0.0
149
0.0
100
AcDbLayout
  1
Layout2
 70
     1
 71
     2
 10
0.0
 20
0.0
 11
0.0
 21
0.0
 12
0.0
 22
0.0
 32
0.0
 14
0.0
 24
0.0
 34
0.0
 15
0.0
 25
0.0
 35
0.0
146
0.0
 13
0.0
 23
0.0
 33
0.0
 16
1.0
 26
0.0
 36
0.0
 17
0.0
 27
1.0
 37
0.0
 76
     0
330
23
  0
LAYOUT
  5
22
102
{ACAD_REACTORS
330
1A
102
}
330
1A
100
AcDbPlotSettings
  1

  2
none_device
  4

  6

 40
0.0
 41
0.0
 42
0.0
 43
0.0
 44
0.0
 45
0.0
 46
0.0
 47
0.0
 48
0.0
 49
0.0
140
0.0
141
0.0
142
1.0
143
1.0
 70
  1712
 72
     0
 73
     0
 74
     0
  7

 75
     0
 76
     0
 77
     2
 78
   300
147
1.0
148
0.0
149
0.0
100
AcDbLayout
  1
Model
 70
     1
 71
     0
 10
0.0
 20
0.0
 11
12.0
 21
9.0
 12
0.0
 22
0.0
 32
0.0
 14
1.000000000000000E+20
 24
1.000000000000000E+20
 34
1.000000000000000E+20
 15
-1.000000000000000E+20
 25
-1.000000000000000E+20
 35
-1.000000000000000E+20
146
0.0
 13
0.0
 23
0.0
 33
0.0
 16
1.0
 26
0.0
 36
0.0
 17
0.0
 27
1.0
 37
0.0
 76
     0
330
1F
331
29
  0
MATERIAL
  5
3D
102
{ACAD_REACTORS
330
3B
102
}
330
3B
100
AcDbMaterial
  1
ByBlock
 72
     1
 94
      127
  0
MATERIAL
  5
3C
102
{ACAD_REACTORS
330
3B
102
}
330
3B
100
AcDbMaterial
  1
ByLayer
 72
     1
 94
      127
  0
MATERIAL
  5
3E
102
{ACAD_REACTORS
330
3B
102
}
330
3B
100
AcDbMaterial
  1
Global
 72
     1
 94
      127
  0
MLINESTYLE
  5
18
102
{ACAD_REACTORS
330
17
102
}
330
17
100
AcDbMlineStyle
  2
Standard
 70
     0
  3

 62
   256
 51
90.0
 52
90.0
 71
     2
 49
0.5
 62
   256
  6
BYLAYER
 49
-0.5
 62
   256
  6
BYLAYER
  0
ACDBPLACEHOLDER
  5
F
102
{ACAD_REACTORS
330
E
102
}
330
E
  0
VISUALSTYLE
  5
2F
102
{ACAD_REACTORS
330
2A
102
}
330
2A
100
AcDbVisualStyle
  2
2dWireframe
 70
     4
177
     2
291
     0
 71
     0
176
     1
 72
     2
176
     1
 73
     0
176
     1
 90
        0
176
     1
 40
-0.6
176
     1
 41
-30.0
176
     1
 62
     5
 63
     7
421
 16777215
176
     1
 74
     1
176
     1
 91
        4
176
     1
 64
     7
176
     1
 65
   257
176
     1
 75
     1
176
     1
175
     1
176
     1
 42
1.0
176
     1
 92
        0
176
     1
 66
   257
176
     1
 43
1.0
176
     1
 76
     1
176
     1
 77
     6
176
     1
 78
     2
176
     1
 67
     7
176
     1
 79
     5
176
     1
170
     0
176
     1
171
     0
176
     1
290
     0
176
     1
 93
        1
176
     1
 44
0.0
176
     1
173
     0
176
     1
  0
VISUALSTYLE
  5
31
102
{ACAD_REACTORS
330
2A
102
}
330
2A
100
AcDbVisualStyle
  2
3D Hidden
 70
     6
177
     2
291
     0
 71
     1
176
     1
 72
     2
176
     1
 73
     2
176
     1
 90
        0
176
     1
 40
-0.6
176
     1
 41
-30.0
176
     1
 62
     5
 63
     7
421
 16777215
176
     1
 74
     2
176
     1
 91
        2
176
     1
 64
     7
176
     1
 65
   257
176
     1
 75
     2
176
     1
175
     1
176
     1
 42
40.0
176
     1
 92
        0
176
     1
 66
   257
176
     1
 43
1.0
176
     1
 76
     1
176
     1
 77
     6
176
     1
 78
     2
176
     1
 67
     7
176
     1
 79
     3
176
     1
170
     0
176
     1
171
     0
176
     1
290
     0
176
     1
 93
        1
176
     1
 44
0.0
176
     1
173
     0
176
     1
  0
VISUALSTYLE
  5
30
102
{ACAD_REACTORS
330
2A
102
}
330
2A
100
AcDbVisualStyle
  2
3dWireframe
 70
     5
177
     2
291
     0
 71
     0
176
     1
 72
     2
176
     1
 73
     0
176
     1
 90
        0
176
     1
 40
-0.6
176
     1
 41
-30.0
176
     1
 62
     5
 63
     7
421
 16777215
176
     1
 74
     1
176
     1
 91
        4
176
     1
 64
     7
176
     1
 65
   257
176
     1
 75
     1
176
     1
175
     1
176
     1
 42
1.0
176
     1
 92
        0
176
     1
 66
   257
176
     1
 43
1.0
176
     1
 76
     1
176
     1
 77
     6
176
     1
 78
     2
176
     1
 67
     7
176
     1
 79
     5
176
     1
170
     0
176
     1
171
     0
176
     1
290
     0
176
     1
 93
        1
176
     1
 44
0.0
176
     1
173
     0
176
     1
  0
VISUALSTYLE
  5
32
102
{ACAD_REACTORS
330
2A
102
}
330
2A
100
AcDbVisualStyle
  2
Basic
 70
     7
177
     2
291
     1
 71
     1
176
     1
 72
     0
176
     1
 73
     1
176
     1
 90
        0
176
     1
 40
-0.6
176
     1
 41
-30.0
176
     1
 62
     5
 63
     7
421
 16777215
176
     1
 74
     0
176
     1
 91
        4
176
     1
 64
     7
176
     1
 65
   257
176
     1
 75
     1
176
     1
175
     1
176
     1
 42
1.0
176
     1
 92
        8
176
     1
 66
     7
176
     1
 43
1.0
176
     1
 76
     1
176
     1
 77
     6
176
     1
 78
     2
176
     1
 67
     7
176
     1
 79
     5
176
     1
170
     0
176
     1
171
     0
176
     1
290
     0
176
     1
 93
        1
176
     1
 44
0.0
176
     1
173
     0
176
     1
  0
VISUALSTYLE
  5
36
102
{ACAD_REACTORS
330
2A
102
}
330
2A
100
AcDbVisualStyle
  2
Brighten
 70
    12
177
     2
291
     1
 71
     2
176
     1
 72
     2
176
     1
 73
     0
176
     1
 90
        0
176
     1
 40
-0.6
176
     1
 41
-30.0
176
     1
 62
     5
 63
     7
421
 16777215
176
     1
 74
     1
176
     1
 91
        4
176
     1
 64
     7
176
     1
 65
   257
176
     1
 75
     1
176
     1
175
     1
176
     1
 42
1.0
176
     1
 92
        8
176
     1
 66
     7
176
     1
 43
1.0
176
     1
 76
     1
176
     1
 77
     6
176
     1
 78
     2
176
     1
 67
     7
176
     1
 79
     5
176
     1
170
     0
176
     1
171
     0
176
     1
290
     0
176
     1
 93
        1
176
     1
 44
50.0
176
     1
173
     0
176
     1
  0
VISUALSTYLE
  5
3A
102
{ACAD_REACTORS
330
2A
102
}
330
2A
100
AcDbVisualStyle
  2
ColorChange
 70
    16
177
     2
291
     1
 71
     2
176
     1
 72
     2
176
     1
 73
     3
176
     1
 90
        0
176
     1
 40
-0.6
176
     1
 41
-30.0
176
     1
 62
     5
 63
     8
421
  8421504
176
     1
 74
     1
176
     1
 91
        4
176
     1
 64
     7
176
     1
 65
   257
176
     1
 75
     1
176
     1
175
     1
176
     1
 42
1.0
176
     1
 92
        8
176
     1
 66
     8
424
  8421504
176
     1
 43
1.0
176
     1
 76
     1
176
     1
 77
     6
176
     1
 78
     2
176
     1
 67
     7
176
     1
 79
     5
176
     1
170
     0
176
     1
171
     0
176
     1
290
     0
176
     1
 93
        1
176
     1
 44
0.0
176
     1
173
     0
176
     1
  0
VISUALSTYLE
  5
34
102
{ACAD_REACTORS
330
2A
102
}
330
2A
100
AcDbVisualStyle
  2
Conceptual
 70
     9
177
     2
291
     0
 71
     3
176
     1
 72
     2
176
     1
 73
     0
176
     1
 90
        0
176
     1
 40
-0.6
176
     1
 41
-30.0
176
     1
 62
     5
 63
     7
421
 16777215
176
     1
 74
     2
176
     1
 91
        2
176
     1
 64
     7
176
     1
 65
   257
176
     1
 75
     1
176
     1
175
     1
176
     1
 42
40.0
176
     1
 92
        8
176
     1
 66
     7
176
     1
 43
1.0
176
     1
 76
     1
176
     1
 77
     6
176
     1
 78
     2
176
     1
 67
     7
176
     1
 79
     3
176
     1
170
     0
176
     1
171
     0
176
     1
290
     0
176
     1
 93
        1
176
     1
 44
0.0
176
     1
173
     0
176
     1
  0
VISUALSTYLE
  5
35
102
{ACAD_REACTORS
330
2A
102
}
330
2A
100
AcDbVisualStyle
  2
Dim
 70
    11
177
     2
291
     1
 71
     2
176
     1
 72
     2
176
     1
 73
     0
176
     1
 90
        0
176
     1
 40
-0.6
176
     1
 41
-30.0
176
     1
 62
     5
 63
     7
421
 16777215
176
     1
 74
     1
176
     1
 91
        4
176
     1
 64
     7
176
     1
 65
   257
176
     1
 75
     1
176
     1
175
     1
176
     1
 42
1.0
176
     1
 92
        8
176
     1
 66
     7
176
     1
 43
1.0
176
     1
 76
     1
176
     1
 77
     6
176
     1
 78
     2
176
     1
 67
     7
176
     1
 79
     5
176
     1
170
     0
176
     1
171
     0
176
     1
290
     0
176
     1
 93
        1
176
     1
 44
-50.0
176
     1
173
     0
176
     1
  0
VISUALSTYLE
  5
39
102
{ACAD_REACTORS
330
2A
102
}
330
2A
100
AcDbVisualStyle
  2
Facepattern
 70
    15
177
     2
291
     1
 71
     2
176
     1
 72
     2
176
     1
 73
     0
176
     1
 90
        0
176
     1
 40
-0.6
176
     1
 41
-30.0
176
     1
 62
     5
 63
     7
421
 16777215
176
     1
 74
     1
176
     1
 91
        4
176
     1
 64
     7
176
     1
 65
   257
176
     1
 75
     1
176
     1
175
     1
176
     1
 42
1.0
176
     1
 92
        8
176
     1
 66
     7
176
     1
 43
1.0
176
     1
 76
     1
176
     1
 77
     6
176
     1
 78
     2
176
     1
 67
     7
176
     1
 79
     5
176
     1
170
     0
176
     1
171
     0
176
     1
290
     0
176
     1
 93
        1
176
     1
 44
0.0
176
     1
173
     0
176
     1
  0
VISUALSTYLE
  5
2B
102
{ACAD_REACTORS
330
2A
102
}
330
2A
100
AcDbVisualStyle
  2
Flat
 70
     0
177
     2
291
     1
 71
     2
176
     1
 72
     1
176
     1
 73
     1
176
     1
 90
        2
176
     1
 40
-0.6
176
     1
 41
30.0
176
     1
 62
     5
 63
     7
421
 16777215
176
     1
 74
     0
176
     1
 91
        4
176
     1
 64
     7
176
     1
 65
   257
176
     1
 75
     1
176
     1
175
     1
176
     1
 42
1.0
176
     1
 92
        8
176
     1
 66
     7
176
     1
 43
1.0
176
     1
 76
     1
176
     1
 77
     6
176
     1
 78
     2
176
     1
 67
     7
176
     1
 79
     5
176
     1
170
     0
176
     1
171
     0
176
     1
290
     0
176
     1
 93
       13
176
     1
 44
0.0
176
     1
173
     0
176
     1
  0
VISUALSTYLE
  5
2C
102
{ACAD_REACTORS
330
2A
102
}
330
2A
100
AcDbVisualStyle
  2
FlatWithEdges
 70
     1
177
     2
291
     1
 71
     2
176
     1
 72
     1
176
     1
 73
     1
176
     1
 90
        2
176
     1
 40
-0.6
176
     1
 41
30.0
176
     1
 62
     5
 63
     7
421
 16777215
176
     1
 74
     1
176
     1
 91
        4
176
     1
 64
     7
176
     1
 65
   257
176
     1
 75
     1
176
     1
175
     1
176
     1
 42
1.0
176
     1
 92
        0
176
     1
 66
   257
176
     1
 43
1.0
176
     1
 76
     1
176
     1
 77
     6
176
     1
 78
     2
176
     1
 67
     7
176
     1
 79
     5
176
     1
170
     0
176
     1
171
     0
176
     1
290
     0
176
     1
 93
       13
176
     1
 44
0.0
176
     1
173
     0
176
     1
  0
VISUALSTYLE
  5
2D
102
{ACAD_REACTORS
330
2A
102
}
330
2A
100
AcDbVisualStyle
  2
Gouraud
 70
     2
177
     2
291
     1
 71
     2
176
     1
 72
     2
176
     1
 73
     1
176
     1
 90
        2
176
     1
 40
-0.6
176
     1
 41
30.0
176
     1
 62
     5
 63
     7
421
 16777215
176
     1
 74
     0
176
     1
 91
        4
176
     1
 64
     7
176
     1
 65
   257
176
     1
 75
     1
176
     1
175
     1
176
     1
 42
1.0
176
     1
 92
        0
176
     1
 66
     7
176
     1
 43
1.0
176
     1
 76
     1
176
     1
 77
     6
176
     1
 78
     2
176
     1
 67
     7
176
     1
 79
     5
176
     1
170
     0
176
     1
171
     0
176
     1
290
     0
176
     1
 93
       13
176
     1
 44
0.0
176
     1
173
     0
176
     1
  0
VISUALSTYLE
  5
2E
102
{ACAD_REACTORS
330
2A
102
}
330
2A
100
AcDbVisualStyle
  2
GouraudWithEdges
 70
     3
177
     2
291
     1
 71
     2
176
     1
 72
     2
176
     1
 73
     1
176
     1
 90
        2
176
     1
 40
-0.6
176
     1
 41
30.0
176
     1
 62
     5
 63
     7
421
 16777215
176
     1
 74
     1
176
     1
 91
        4
176
     1
 64
     7
176
     1
 65
   257
176
     1
 75
     1
176
     1
175
     1
176
     1
 42
1.0
176
     1
 92
        0
176
     1
 66
   257
176
     1
 43
1.0
176
     1
 76
     1
176
     1
 77
     6
176
     1
 78
     2
176
     1
 67
     7
176
     1
 79
     5
176
     1
170
     0
176
     1
171
     0
176
     1
290
     0
176
     1
 93
       13
176
     1
 44
0.0
176
     1
173
     0
176
     1
  0
VISUALSTYLE
  5
38
102
{ACAD_REACTORS
330
2A
102
}
330
2A
100
AcDbVisualStyle
  2
Linepattern
 70
    14
177
     2
291
     1
 71
     2
176
     1
 72
     2
176
     1
 73
     0
176
     1
 90
        0
176
     1
 40
-0.6
176
     1
 41
-30.0
176
     1
 62
     5
 63
     7
421
 16777215
176
     1
 74
     1
176
     1
 91
        4
176
     1
 64
     7
176
     1
 65
   257
176
     1
 75
     7
176
     1
175
     7
176
     1
 42
1.0
176
     1
 92
        8
176
     1
 66
     7
176
     1
 43
1.0
176
     1
 76
     1
176
     1
 77
     6
176
     1
 78
     2
176
     1
 67
     7
176
     1
 79
     5
176
     1
170
     0
176
     1
171
     0
176
     1
290
     0
176
     1
 93
        1
176
     1
 44
0.0
176
     1
173
     0
176
     1
  0
VISUALSTYLE
  5
33
102
{ACAD_REACTORS
330
2A
102
}
330
2A
100
AcDbVisualStyle
  2
Realistic
 70
     8
177
     2
291
     0
 71
     2
176
     1
 72
     2
176
     1
 73
     0
176
     1
 90
        0
176
     1
 40
-0.6
176
     1
 41
-30.0
176
     1
 62
     5
 63
     7
421
 16777215
176
     1
 74
     1
176
     1
 91
        0
176
     1
 64
     7
176
     1
 65
   257
176
     1
 75
     1
176
     1
175
     1
176
     1
 42
1.0
176
     1
 92
        8
176
     1
 66
     8
424
  7895160
176
     1
 43
1.0
176
     1
 76
     1
176
     1
 77
     6
176
     1
 78
     2
176
     1
 67
     7
176
     1
 79
     5
176
     1
170
     0
176
     1
171
     0
176
     1
290
     0
176
     1
 93
       13
176
     1
 44
0.0
176
     1
173
     0
176
     1
  0
VISUALSTYLE
  5
37
102
{ACAD_REACTORS
330
2A
102
}
330
2A
100
AcDbVisualStyle
  2
Thicken
 70
    13
177
     2
291
     1
 71
     2
176
     1
 72
     2
176
     1
 73
     0
176
     1
 90
        0
176
     1
 40
-0.6
176
     1
 41
-30.0
176
     1
 62
     5
 63
     7
421
 16777215
176
     1
 74
     1
176
     1
 91
        4
176
     1
 64
     7
176
     1
 65
   257
176
     1
 75
     1
176
     1
175
     1
176
     1
 42
1.0
176
     1
 92
       12
176
     1
 66
     7
176
     1
 43
1.0
176
     1
 76
     1
176
     1
 77
     6
176
     1
 78
     2
176
     1
 67
     7
176
     1
 79
     5
176
     1
170
     0
176
     1
171
     0
176
     1
290
     0
176
     1
 93
        1
176
     1
 44
0.0
176
     1
173
     0
176
     1
  0
ENDSEC
  0
EOF
